<?xml version="1.0" encoding="utf-8"?>
<!-- Generator: Adobe Illustrator 18.1.1, SVG Export Plug-In . SVG Version: 6.00 Build 0)  -->
<svg version="1.1" id="Layer_1" xmlns="http://www.w3.org/2000/svg" xmlns:xlink="http://www.w3.org/1999/xlink" x="0px" y="0px"
	 viewBox="0 0 94.8 94.8" enable-background="new 0 0 94.8 94.8" xml:space="preserve">
<g>
	<path fill="#0973B9" d="M47.4,93.7c-12.4,0-24-4.8-32.7-13.5C6,71.5,1.2,59.8,1.2,47.5c0-12.4,4.8-24,13.5-32.7
		C23.4,6.1,35,1.2,47.4,1.2c12.4,0,24,4.8,32.7,13.5s13.5,20.3,13.5,32.7c0,12.4-4.8,24-13.5,32.7C71.4,88.9,59.8,93.7,47.4,93.7z"
		/>
	<path fill="#28A6DE" d="M47.4,2.5c24.8,0,45,20.1,45,45c0,24.8-20.1,45-45,45c-24.8,0-45-20.1-45-45C2.4,22.6,22.6,2.5,47.4,2.5
		 M47.4,0C41,0,34.8,1.3,28.9,3.7c-5.7,2.4-10.7,5.8-15.1,10.2C9.5,18.3,6,23.3,3.6,29c-2.5,5.9-3.7,12.1-3.7,18.5
		c0,6.4,1.3,12.6,3.7,18.5C6,71.6,9.5,76.7,13.8,81.1c4.4,4.4,9.4,7.8,15.1,10.2C34.8,93.7,41,95,47.4,95c6.4,0,12.6-1.3,18.5-3.7
		c5.7-2.4,10.7-5.8,15.1-10.2c4.4-4.4,7.8-9.4,10.2-15.1c2.5-5.9,3.7-12.1,3.7-18.5c0-6.4-1.3-12.6-3.7-18.5
		c-2.4-5.7-5.8-10.7-10.2-15.1c-4.4-4.4-9.4-7.8-15.1-10.2C60,1.3,53.8,0,47.4,0L47.4,0z"/>
	<path fill="#28A6DE" d="M47.4,13.7v67.5c18.6,0,33.7-15.1,33.7-33.7C81.1,28.9,66,13.7,47.4,13.7z"/>
	<polygon fill="#F3F4F5" points="47.4,25.2 27.5,25.2 28.3,33 47.4,33 48.2,33 47.4,33.3 29.1,41 29.9,48.9 47.4,48.9 57.1,48.9 
		56.1,59.2 47.4,61.8 47.4,61.8 38.7,59.1 38,53.1 30.1,52.9 31.3,65.3 47.4,69.8 47.4,69.8 63.8,65.3 65.7,41.2 48.3,41.2 66.5,33 
		66.5,33 67.3,25.2 	"/>
</g>
</svg>
