<svg xmlns="http://www.w3.org/2000/svg" xmlns:xlink="http://www.w3.org/1999/xlink" version="1.1" id="illustration" x="0" y="0" viewBox="0 0 2608.1 1432.1" enable-background="new 0 0 2608.1 1432.1" xml:space="preserve">
  <g display="none">
    <rect x="-151.9" y="-272.5" display="inline" fill="#70AFB5" width="2912" height="1950"/>
  </g>
  <g opacity="0.2">
    <path fill="#353D44" d="M2296.1 920.4h-27 -8 -283.8v-0.6l-45.6 11.4 -19.7 4.9 19.7 4.9 45.6 11.4h283.8 8 27c8.8 0 16-7.2 16-16C2312.1 927.6 2305 920.4 2296.1 920.4z"/>
    <path fill="#353D44" d="M2309.6 998.2h-5.2v-1.3l-47.1-12.7h-283.8 -1c0-3.3 2.7-6 6-6h88c1.1 0 2-0.9 2-2 0-1.1-0.9-2-2-2h-88c-5.5 0-10 4.5-10 10h-3 -27c-2.2 0-4 1.8-4 4v4h-18c-1.1 0-2 0.9-2 2v12c0 1.1 0.9 2 2 2h18v4c0 2.2 1.8 4 4 4h8 8 11 5 3 283.8l47.1-12.7v-1.3h5.2c1.1 0 2-0.9 2-2C2311.6 999.1 2310.7 998.2 2309.6 998.2z"/>
    <path fill="#353D44" d="M1761.2 896.2C1761.2 896.2 1761.2 896.2 1761.2 896.2 1761.2 896.2 1761.2 896.2 1761.2 896.2c-35.3 0-63.9 28.5-64.1 63.8 0 0.2 0 0.3 0 0.5v0.2 0.4 119.9c0 0.3 0 0.6 0 0.9v6.2h0c0.3 35.1 28.8 63.8 64 63.8 35.3 0 64-28.8 64-63.8v-0.1h0.1V960.2C1825.2 924.8 1796.6 896.2 1761.2 896.2z"/>
    <path fill="#353D44" d="M768.1 744h384v16 64h-96v32h448v-32h-96v-64 -16h384c17.6 0 32-14.4 32-32v-96V40c0-17.6-14.4-32-32-32h-1024c-17.6 0-32 14.4-32 32v576 96C736.1 729.6 750.5 744 768.1 744z"/>
    <polygon fill="#353D44" points="1567.4 920.3 1567.4 920.3 1567.4 920.3 1248.1 920.3 1248.1 1431.7 1632.1 1431.7 1632.1 985 1599.8 952.7 "/>
    <rect x="544" y="920" fill="#353D44" width="640" height="208"/>
    <path fill="#353D44" d="M1136.2 1216.1h-32v-40.2H895.8v224h0c0 0 0 0.1 0 0.1 0 17.7 14.3 32 32 32h144.5c17.7 0 32-14.3 32-32 0 0 0-0.1 0-0.1h0v-24.2h32c26.5 0 48-21.5 48-48v-63.6C1184.2 1237.7 1162.7 1216.1 1136.2 1216.1zM1152.2 1327.8c0 8.8-7.2 16-16 16h-32v-95.6h32c8.8 0 16 7.2 16 16V1327.8z"/>
    <path fill="#353D44" d="M608.1 857v-9.3h32c17.6 0 32-14.4 32-32V417.5c0-17.6-14.4-32-32-32h-32v-10.8h-28.6 -8 -59.4v10.8h-48.6V319c0-26.5-21.5-48-48-48H256.1c-26.5 0-48 21.5-48 48v66.5h-48v-10.8h-60 -8H63.5v10.8H32.1c-17.6 0-32 14.4-32 32v398.2c0 17.6 14.4 32 32 32h31.7v9.3h96v-9.3h352.3v9.3H608.1zM240.1 319c0-8.8 7.2-16 16-16h159.4c8.8 0 16 7.2 16 16v66.5H240.1V319z"/>
    <path fill="#353D44" d="M2144.1 264.6c0-17.7-14.3-32-32-32s-32 14.3-32 32c0 5.8-1.6 11.3-4.3 16h-187.7v576h448v-576h-187.7C2145.7 275.9 2144.1 270.5 2144.1 264.6zM2112.1 256.6c4.4 0 8 3.6 8 8 0 4.4-3.6 8-8 8s-8-3.6-8-8C2104.1 260.2 2107.7 256.6 2112.1 256.6z"/>
    <path fill="#353D44" d="M2576.1 682.6v-34c0-44.1-35.9-80-80-80 -44.1 0-80 35.9-80 80v34h-24V840v16.7h104 104V840 682.6H2576.1zM2449.1 639c4.5-21.9 23.9-38.3 47-38.3s42.5 16.5 47 38.3c0.6 3.1 1 6.4 1 9.7v34h-48 -48v-34C2448.1 645.3 2448.5 642.1 2449.1 639z"/>
    <rect x="0" y="920" fill="#353D44" width="483.2" height="64"/>
  </g>
  <circle fill="#353D44" cx="2304.1" cy="928.4" r="16"/>
  <rect x="1985.4" y="912.4" fill="#F4B400" width="318.7" height="32"/>
  <rect x="2269.1" y="912.4" fill="#F05722" width="8" height="32"/>
  <polygon fill="#FFEED2" points="1985.4 944.4 1985.4 911.8 1939.8 923.2 1939.8 933 "/>
  <polygon fill="#353D44" points="1939.8 933 1939.8 923.2 1920.1 928.1 "/>
  <rect x="1946.6" y="992.2" fill="#353D44" width="16" height="16"/>
  <rect x="1946.6" y="1000.2" fill="#353D44" width="8" height="8"/>
  <circle fill="#353D44" cx="1946.6" cy="1004.2" r="4"/>
  <circle fill="#353D44" cx="1946.6" cy="980.2" r="4"/>
  <rect x="1942.6" y="980.2" fill="#353D44" width="4" height="24"/>
  <path fill="#353D44" d="M1944.6 984.2c1.1 0 2 0.9 2 2v12c0 1.1-0.9 2-2 2h-20c-1.1 0-2-0.9-2-2v-12c0-1.1 0.9-2 2-2H1944.6z"/>
  <path fill="#353D44" d="M1978.6 978.2c-1.1 0-2-0.9-2-2 0-5.5 4.5-10 10-10h88c1.1 0 2 0.9 2 2 0 1.1-0.9 2-2 2h-88c-3.3 0-6 2.7-6 6C1980.6 977.3 1979.7 978.2 1978.6 978.2z"/>
  <rect x="1946.6" y="976.2" fill="#353D44" width="318.7" height="32"/>
  <rect x="1973.6" y="976.2" fill="#F05722" width="8" height="32"/>
  <rect x="1946.6" y="976.2" fill="#353D44" width="32" height="32"/>
  <path fill="#353D44" d="M2317.6 994.2h-30.8c-1.1 0-2-0.9-2-2 0-1.1 0.9-2 2-2h30.8c1.1 0 2 0.9 2 2C2319.6 993.3 2318.7 994.2 2317.6 994.2z"/>
  <polygon fill="#353D44" points="2265.4 976.2 2265.4 1008.2 2312.4 995.6 2312.4 988.9 "/>
  <path fill="#353D44" d="M1942.6 980.2v24c0 2.2 1.8 4 4 4h8 8 16v-32h-32C1944.4 976.2 1942.6 978 1942.6 980.2z"/>
  <polygon fill="#353D44" points="2265.4 976.2 2265.4 1008.2 2312.4 995.6 2312.4 988.9 "/>
  <path fill="#D6D6D6" d="M1705.1 953v119.9c0 0.3 0 0.6 0 0.9v6.2h0c0.3 35.1 28.8 63.8 64 63.8 35.3 0 64-28.8 64-63.8h-0.3c0 0 0 0 0 0h0.3V952.2c0-35.3-28.6-64-64-64 -35.3 0-63.9 28.5-64 63.8 0 0.2 0 0.3 0 0.5V953z"/>
  <path fill="#E5E5E5" d="M1832.8 1079.9h0.4V952.2c0-35.3-28.7-64-64-64 -35.3 0-63.9 28.5-64 63.8 0 0.2 0 0.3 0 0.5v0.2c0 70.5 57.1 127.7 127.6 127.9 0-0.1 0-0.2 0-0.3C1832.8 1080.1 1832.8 1080 1832.8 1079.9z"/>
  <circle fill="#999999" cx="1769.2" cy="952.2" r="16"/>
  <path fill="#999999" d="M1705.2 952.2v0.2c0-0.2 0-0.3 0-0.5C1705.2 952 1705.2 952.1 1705.2 952.2z"/>
  <path fill="#E5E5E5" d="M1705.2 952.5C1705.2 952.5 1705.2 952.5 1705.2 952.5L1705.2 952.5C1705.2 952.4 1705.2 952.5 1705.2 952.5z"/>
  <path fill="#D6D6D6" d="M1817.4 1080c-63.2-8-112.2-62.1-112.2-127.4v120.3c0 0.3 0 0.6 0 0.9v6.2h0c0.3 35.1 28.8 63.8 64 63.8 35.3 0 64-28.8 64-63.8H1817.4z"/>
  <rect x="1160.1" y="736" fill="#D6D6D6" width="256" height="80"/>
  <rect x="1064.1" y="816" fill="#E5E5E5" width="448" height="32"/>
  <path fill="#4285F4" d="M1832.1 32c0-17.6-14.4-32-32-32h-1024c-17.6 0-32 14.4-32 32v576h1088V32z"/>
  <path fill="#353D44" d="M1800.1 32C1800.1 32 1800.1 32 1800.1 32l0.1 544h-1024V32.1c0 0 0 0 0.1-0.1H1800.1L1800.1 32zM1800.1 0h-1024c-17.6 0-32 14.4-32 32v576h1088V32C1832.1 14.4 1817.7 0 1800.1 0L1800.1 0z"/>
  <path fill="#E5E5E5" d="M744.1 608v96c0 17.6 14.4 32 32 32h1024c17.6 0 32-14.4 32-32v-96H744.1z"/>
  <rect x="1240.1" y="656" fill="#353D44" width="96" height="32"/>
  <rect x="1160.1" y="736" fill="#BFBFBF" width="256" height="16"/>
  <rect x="1224.1" y="96.2" fill="#E5E5E5" width="545" height="447.8"/>
  <rect x="1224.1" y="64.2" fill="#999999" width="545" height="32"/>
  <rect x="1256.1" y="128.1" fill="#F05722" width="64" height="64"/>
  <rect x="1352.1" y="144.1" fill="#4285F4" width="384" height="32"/>
  <rect x="1272.1" y="152.1" fill="#E5E5E5" width="32" height="16"/>
  <rect x="1704.1" y="440.1" fill="#353D44" width="32" height="16"/>
  <rect x="1655.1" y="440.1" fill="#353D44" width="32" height="16"/>
  <rect x="1416.1" y="144.1" fill="#4B565E" width="64" height="32"/>
  <rect x="1256.1" y="224.1" fill="#F4B400" width="96" height="96"/>
  <rect x="1384.1" y="224.1" fill="#353D44" width="96" height="96"/>
  <rect x="1512.1" y="224.1" fill="#4285F4" width="96" height="96"/>
  <rect x="1640.1" y="224.1" fill="#F05722" width="96" height="96"/>
  <rect x="1256.1" y="332.1" fill="#353D44" width="80" height="8"/>
  <rect x="1384.1" y="332.1" fill="#353D44" width="96" height="8"/>
  <rect x="1640.1" y="364.1" fill="#353D44" width="96" height="8"/>
  <rect x="1384.1" y="364.1" fill="#353D44" width="64" height="8"/>
  <rect x="1256.1" y="364.1" fill="#353D44" width="48" height="8"/>
  <rect x="1320.1" y="364.1" fill="#353D44" width="32" height="8"/>
  <rect x="1512.1" y="364.1" fill="#353D44" width="32" height="8"/>
  <rect x="1560.1" y="364.1" fill="#353D44" width="16" height="8"/>
  <rect x="1512.1" y="332.1" fill="#353D44" width="48" height="8"/>
  <rect x="1576.1" y="332.1" fill="#353D44" width="32" height="8"/>
  <rect x="1512.1" y="348.1" fill="#353D44" width="80" height="8"/>
  <rect x="1384.1" y="348.1" fill="#353D44" width="32" height="8"/>
  <rect x="1256.1" y="348.1" fill="#353D44" width="64" height="8"/>
  <rect x="1384.1" y="380.1" fill="#353D44" width="48" height="8"/>
  <rect x="1448.1" y="380.1" fill="#353D44" width="32" height="8"/>
  <rect x="1640.1" y="380.1" fill="#353D44" width="32" height="8"/>
  <rect x="1432.1" y="156.1" fill="#E5E5E5" width="32" height="8"/>
  <rect x="1368.1" y="156.1" fill="#E5E5E5" width="32" height="8"/>
  <rect x="1496.1" y="156.1" fill="#E5E5E5" width="32" height="8"/>
  <rect x="1560.1" y="156.1" fill="#E5E5E5" width="32" height="8"/>
  <rect x="1624.1" y="156.1" fill="#E5E5E5" width="32" height="8"/>
  <rect x="1688.1" y="156.1" fill="#E5E5E5" width="32" height="8"/>
  <rect x="1688.1" y="380.1" fill="#353D44" width="16" height="8"/>
  <rect x="1512.1" y="380.1" fill="#353D44" width="80" height="8"/>
  <rect x="1256.1" y="380.1" fill="#353D44" width="80" height="8"/>
  <rect x="1640.1" y="348.1" fill="#353D44" width="48" height="8"/>
  <rect x="1432.1" y="348.1" fill="#353D44" width="48" height="8"/>
  <rect x="1704.1" y="348.1" fill="#353D44" width="32" height="8"/>
  <circle fill="#E5E5E5" cx="1304.1" cy="272.1" r="32"/>
  <circle fill="#E5E5E5" cx="1432.1" cy="272.1" r="32"/>
  <circle fill="#E5E5E5" cx="1560.1" cy="272.1" r="32"/>
  <circle fill="#E5E5E5" cx="1688.1" cy="272.1" r="32"/>
  <rect x="1640.1" y="332.1" fill="#353D44" width="80" height="8"/>
  <rect x="808.1" y="64.2" fill="#353D44" width="384" height="479.8"/>
  <rect x="808.1" y="64.2" fill="#999999" width="384" height="31.8"/>
  <g opacity="0.5">
    <rect x="840.1" y="461" fill="#999999" width="112.2" height="8"/>
  </g>
  <rect x="968.1" y="461" fill="#999999" width="96" height="8"/>
  <g opacity="0.5">
    <rect x="888.2" y="493" fill="#999999" width="79.9" height="8"/>
  </g>
  <rect x="872.1" y="477.7" fill="#F05722" width="32.2" height="8"/>
  <rect x="920" y="477.7" fill="#999999" width="64.1" height="8"/>
  <g opacity="0.5">
    <rect x="904.4" y="509.7" fill="#999999" width="95.8" height="8"/>
  </g>
  <rect x="1016.1" y="509.7" fill="#999999" width="144" height="8"/>
  <g opacity="0.5">
    <rect x="984.1" y="493.3" fill="#999999" width="32" height="8"/>
  </g>
  <rect x="1032.4" y="493" fill="#4285F4" width="64" height="8"/>
  <g opacity="0.5">
    <rect x="856.4" y="187.3" fill="#999999" width="111.8" height="8"/>
  </g>
  <g opacity="0.5">
    <rect x="984.4" y="299.1" fill="#999999" width="79.8" height="8"/>
  </g>
  <g opacity="0.5">
    <rect x="920" y="219.3" fill="#999999" width="64.1" height="8"/>
  </g>
  <g opacity="0.5">
    <rect x="1000.3" y="219.3" fill="#999999" width="96.1" height="8"/>
  </g>
  <g opacity="0.5">
    <rect x="872.1" y="299.1" fill="#999999" width="96.1" height="8"/>
  </g>
  <rect x="840.1" y="170.9" fill="#4285F4" width="48" height="8"/>
  <g opacity="0.5">
    <rect x="904.2" y="170.9" fill="#999999" width="111.9" height="8"/>
  </g>
  <rect x="872.1" y="203.3" fill="#999999" width="47.9" height="8"/>
  <rect x="888.1" y="219.3" fill="#4285F4" width="16.2" height="8"/>
  <rect x="936.4" y="203.3" fill="#F05722" width="63.8" height="8"/>
  <rect x="936.4" y="427.6" fill="#999999" width="63.8" height="8"/>
  <rect x="936.4" y="283.3" fill="#999999" width="191.8" height="8"/>
  <g opacity="0.5">
    <rect x="1016.2" y="203.3" fill="#999999" width="47.9" height="8"/>
  </g>
  <rect x="904.4" y="235.3" fill="#999999" width="111.9" height="8"/>
  <g opacity="0.5">
    <rect x="872.1" y="347.8" fill="#999999" width="160" height="8"/>
  </g>
  <g opacity="0.5">
    <rect x="904.4" y="379.8" fill="#999999" width="79.8" height="8"/>
  </g>
  <g opacity="0.5">
    <rect x="1000.4" y="379.8" fill="#999999" width="48.1" height="8"/>
  </g>
  <g opacity="0.5">
    <rect x="1064.4" y="379.5" fill="#999999" width="31.8" height="8"/>
  </g>
  <g opacity="0.5">
    <rect x="840.1" y="124" fill="#999999" width="64" height="8"/>
  </g>
  <rect x="856.4" y="139.3" fill="#999999" width="63.6" height="8"/>
  <g opacity="0.5">
    <rect x="856.4" y="427.6" fill="#999999" width="63.6" height="8"/>
  </g>
  <rect x="856.4" y="283.3" fill="#4285F4" width="63.6" height="8"/>
  <rect x="888.2" y="363.4" fill="#4285F4" width="79.9" height="8"/>
  <rect x="984.1" y="363.7" fill="#999999" width="32" height="8"/>
  <rect x="1032.4" y="363.4" fill="#F05722" width="127.8" height="8"/>
  <rect x="840.1" y="266.9" fill="#F05722" width="32" height="8"/>
  <rect x="840.1" y="411.8" fill="#4285F4" width="96.2" height="8"/>
  <g opacity="0.5">
    <rect x="888.1" y="315.6" fill="#999999" width="128.1" height="8"/>
  </g>
  <polygon fill="#4285F4" points="1575.4 912.3 1256.1 912.3 1256.1 1423.7 1640.1 1423.7 1640.1 977 "/>
  <polygon fill="#353D44" points="1575.4 977 1640.1 977 1575.4 912.3 "/>
  <rect x="1491.1" y="1276" fill="#E5E5E5" width="69" height="8"/>
  <rect x="1320.1" y="1084" fill="#E5E5E5" width="127" height="8"/>
  <path fill="none" stroke="#E5E5E5" stroke-width="8" stroke-miterlimit="10" d="M1447.1 1280"/>
  <rect x="1384.1" y="1040" fill="#E5E5E5" width="128" height="96"/>
  <rect x="1384.1" y="1328" fill="#E5E5E5" width="128" height="64"/>
  <rect x="1384.1" y="1264" fill="#E5E5E5" width="128" height="32"/>
  <polygon fill="#E5E5E5" points="1384.1 976 1448.1 944 1512.1 976 1448.1 1008 "/>
  <polygon fill="#E5E5E5" points="1384.1 1200 1448.1 1168 1512.1 1200 1448.1 1232 "/>
  <rect x="1443.1" y="977" fill="#E5E5E5" width="8" height="383"/>
  <rect x="1427.1" y="972" fill="#353D44" width="40" height="8"/>
  <rect x="1416.1" y="1196" fill="#353D44" width="64" height="8"/>
  <rect x="1408.1" y="1348" fill="#353D44" width="32" height="8"/>
  <rect x="1456.1" y="1348" fill="#353D44" width="16" height="8"/>
  <rect x="1408.1" y="1364" fill="#353D44" width="80" height="8"/>
  <rect x="1399.1" y="1092" fill="#353D44" width="96" height="8"/>
  <rect x="1399.1" y="1108" fill="#353D44" width="32" height="8"/>
  <rect x="1447.1" y="1108" fill="#353D44" width="16" height="8"/>
  <rect x="1399.1" y="1076" fill="#353D44" width="48" height="8"/>
  <rect x="1463.1" y="1076" fill="#353D44" width="32" height="8"/>
  <rect x="1399.1" y="1060" fill="#353D44" width="80" height="8"/>
  <rect x="1399.1" y="1276" fill="#353D44" width="48" height="8"/>
  <rect x="1463.1" y="1276" fill="#353D44" width="32" height="8"/>
  <rect x="1544.1" y="1264" fill="#E5E5E5" width="64" height="32"/>
  <rect x="1288.1" y="1056" fill="#E5E5E5" width="64" height="64"/>
  <rect x="1304.1" y="1076" fill="#353D44" width="32" height="8"/>
  <rect x="1304.1" y="1092" fill="#353D44" width="16" height="8"/>
  <rect x="1559.1" y="1276" fill="#353D44" width="32" height="8"/>
  <rect x="552" y="912" fill="#E5E5E5" width="640" height="208"/>
  <rect x="568" y="1072" fill="#999999" width="32" height="32"/>
  <rect x="568" y="1024" fill="#999999" width="32" height="32"/>
  <rect x="568" y="976" fill="#999999" width="32" height="32"/>
  <rect x="568" y="928" fill="#999999" width="32" height="32"/>
  <rect x="616" y="1072" fill="#999999" width="32" height="32"/>
  <rect x="616" y="1024" fill="#999999" width="32" height="32"/>
  <rect x="616" y="976" fill="#999999" width="32" height="32"/>
  <rect x="616" y="928" fill="#999999" width="32" height="32"/>
  <rect x="664" y="1072" fill="#999999" width="32" height="32"/>
  <rect x="664" y="1024" fill="#999999" width="32" height="32"/>
  <rect x="664" y="976" fill="#999999" width="32" height="32"/>
  <rect x="664" y="928" fill="#999999" width="32" height="32"/>
  <rect x="712" y="1072" fill="#999999" width="224" height="32"/>
  <rect x="712" y="1024" fill="#999999" width="32" height="32"/>
  <rect x="712" y="976" fill="#999999" width="32" height="32"/>
  <rect x="712" y="928" fill="#999999" width="32" height="32"/>
  <rect x="760" y="1024" fill="#999999" width="32" height="32"/>
  <rect x="760" y="976" fill="#999999" width="32" height="32"/>
  <rect x="760" y="928" fill="#999999" width="32" height="32"/>
  <rect x="808" y="1024" fill="#999999" width="32" height="32"/>
  <rect x="808" y="976" fill="#999999" width="32" height="32"/>
  <rect x="808" y="928" fill="#999999" width="32" height="32"/>
  <rect x="856" y="1024" fill="#999999" width="32" height="32"/>
  <rect x="856" y="976" fill="#999999" width="32" height="32"/>
  <rect x="856" y="928" fill="#999999" width="32" height="32"/>
  <rect x="904" y="1024" fill="#999999" width="32" height="32"/>
  <rect x="904" y="976" fill="#999999" width="32" height="32"/>
  <rect x="904" y="928" fill="#999999" width="32" height="32"/>
  <rect x="952" y="1072" fill="#999999" width="32" height="32"/>
  <rect x="952" y="1024" fill="#999999" width="32" height="32"/>
  <rect x="952" y="976" fill="#999999" width="32" height="32"/>
  <rect x="952" y="928" fill="#999999" width="32" height="32"/>
  <rect x="1000" y="1072" fill="#999999" width="32" height="32"/>
  <rect x="1000" y="1024" fill="#999999" width="32" height="32"/>
  <rect x="1000" y="976" fill="#999999" width="32" height="32"/>
  <rect x="1000" y="928" fill="#999999" width="32" height="32"/>
  <rect x="1048" y="1072" fill="#999999" width="32" height="32"/>
  <rect x="1048" y="1024" fill="#999999" width="32" height="32"/>
  <rect x="1048" y="976" fill="#999999" width="32" height="32"/>
  <rect x="1048" y="928" fill="#999999" width="32" height="32"/>
  <rect x="1096" y="1072" fill="#999999" width="32" height="32"/>
  <rect x="1096" y="1024" fill="#999999" width="32" height="32"/>
  <rect x="1096" y="976" fill="#999999" width="32" height="32"/>
  <rect x="1096" y="928" fill="#999999" width="32" height="32"/>
  <rect x="1144" y="1024" fill="#999999" width="32" height="80"/>
  <rect x="1144" y="976" fill="#999999" width="32" height="32"/>
  <rect x="1144" y="928" fill="#999999" width="32" height="32"/>
  <rect x="903.7" y="1167.9" fill="#F4B400" width="208.5" height="224"/>
  <path fill="#F4B400" d="M1144.2 1367.8h-32c-26.5 0-48-21.5-48-48v-63.6c0-26.5 21.5-48 48-48h32c26.5 0 48 21.5 48 48v63.6C1192.2 1346.2 1170.7 1367.8 1144.2 1367.8zM1112.2 1240.1c-8.8 0-16 7.2-16 16v63.6c0 8.8 7.2 16 16 16h32c8.8 0 16-7.2 16-16v-63.6c0-8.8-7.2-16-16-16H1112.2z"/>
  <circle fill="#F4B400" cx="935.7" cy="1392.1" r="32"/>
  <circle fill="#F4B400" cx="1080.2" cy="1392.1" r="32"/>
  <rect x="935.7" y="1328.2" fill="#F4B400" width="144.5" height="95.9"/>
  <rect x="1029.7" y="1168.1" fill="#E5E5E5" width="8" height="160.1"/>
  <rect x="1001.7" y="1264.4" fill="#353D44" width="64" height="64"/>
  <rect x="71.5" y="366.7" fill="#E5E5E5" width="96.6" height="18.9"/>
  <rect x="520.1" y="366.7" fill="#E5E5E5" width="96" height="18.9"/>
  <rect x="520.1" y="830.1" fill="#E5E5E5" width="96" height="18.9"/>
  <rect x="71.8" y="830.1" fill="#E5E5E5" width="96" height="18.9"/>
  <rect x="100.1" y="366.7" fill="#353D44" width="8" height="18.9"/>
  <rect x="579.5" y="366.7" fill="#353D44" width="8" height="18.9"/>
  <path fill="#4B565E" d="M423.5 491.9H264.1c-26.5 0-48-21.5-48-48V311c0-26.5 21.5-48 48-48h159.4c26.5 0 48 21.5 48 48v132.9C471.5 470.4 450 491.9 423.5 491.9zM264.1 295c-8.8 0-16 7.2-16 16v132.9c0 8.8 7.2 16 16 16h159.4c8.8 0 16-7.2 16-16V311c0-8.8-7.2-16-16-16H264.1z"/>
  <path fill="#353D44" d="M680.1 807.7c0 17.6-14.4 32-32 32h-608c-17.6 0-32-14.4-32-32V409.5c0-17.6 14.4-32 32-32h608c17.6 0 32 14.4 32 32V807.7z"/>
  <rect x="72.1" y="377.6" fill="#4B565E" width="96" height="462"/>
  <rect x="520.1" y="377.6" fill="#4B565E" width="96" height="462"/>
  <rect x="1896.1" y="272.6" fill="#353D44" width="448" height="576"/>
  <polygon fill="#E5E5E5" points="2312.1 304.6 1928.1 304.6 1928.1 816.6 2248.1 816.6 2312.1 752.6 "/>
  <g opacity="0.3">
    <polygon fill="#0E3656" points="2248.1 816.6 2312.1 752.6 2248.1 752.6 "/>
  </g>
  <rect x="1992.1" y="368.6" fill="#999999" width="64" height="16"/>
  <rect x="2088.1" y="368.6" fill="#999999" width="64" height="16"/>
  <rect x="2184.1" y="368.6" fill="#999999" width="64" height="16"/>
  <rect x="1992.1" y="400.6" fill="#999999" width="64" height="16"/>
  <rect x="2088.1" y="400.6" fill="#999999" width="64" height="16"/>
  <rect x="2184.1" y="400.6" fill="#999999" width="64" height="16"/>
  <rect x="1992.1" y="432.6" fill="#999999" width="64" height="16"/>
  <rect x="2088.1" y="432.6" fill="#999999" width="64" height="16"/>
  <rect x="2184.1" y="432.6" fill="#999999" width="64" height="16"/>
  <rect x="1992.1" y="464.6" fill="#999999" width="64" height="16"/>
  <rect x="2088.1" y="464.6" fill="#999999" width="64" height="16"/>
  <rect x="2184.1" y="464.6" fill="#999999" width="64" height="16"/>
  <rect x="1992.1" y="496.6" fill="#999999" width="64" height="16"/>
  <rect x="2088.1" y="496.6" fill="#999999" width="64" height="16"/>
  <rect x="2184.1" y="496.6" fill="#999999" width="64" height="16"/>
  <rect x="1992.1" y="528.6" fill="#999999" width="64" height="16"/>
  <rect x="2088.1" y="528.6" fill="#999999" width="64" height="16"/>
  <rect x="2184.1" y="528.6" fill="#999999" width="64" height="16"/>
  <rect x="1992.1" y="560.6" fill="#999999" width="64" height="16"/>
  <rect x="2088.1" y="560.6" fill="#999999" width="64" height="16"/>
  <rect x="2184.1" y="560.6" fill="#999999" width="64" height="16"/>
  <rect x="1992.1" y="592.6" fill="#999999" width="64" height="16"/>
  <rect x="2088.1" y="592.6" fill="#999999" width="64" height="16"/>
  <rect x="2184.1" y="592.6" fill="#999999" width="64" height="16"/>
  <rect x="1992.1" y="624.6" fill="#999999" width="64" height="16"/>
  <rect x="2088.1" y="624.6" fill="#999999" width="64" height="16"/>
  <rect x="2184.1" y="624.6" fill="#999999" width="64" height="16"/>
  <rect x="1992.1" y="656.6" fill="#999999" width="64" height="16"/>
  <rect x="2088.1" y="656.6" fill="#999999" width="64" height="16"/>
  <rect x="2184.1" y="656.6" fill="#999999" width="64" height="16"/>
  <rect x="1992.1" y="688.6" fill="#999999" width="64" height="16"/>
  <rect x="2088.1" y="688.6" fill="#999999" width="64" height="16"/>
  <rect x="2184.1" y="688.6" fill="#999999" width="64" height="16"/>
  <rect x="1992.1" y="720.6" fill="#999999" width="64" height="16"/>
  <rect x="2088.1" y="720.6" fill="#999999" width="64" height="16"/>
  <rect x="2184.1" y="720.6" fill="#999999" width="64" height="16"/>
  <path fill="#F4B400" d="M2184.1 288.6c-17.7 0-32-14.3-32-32 0-17.7-14.3-32-32-32s-32 14.3-32 32c0 17.7-14.3 32-32 32s-32 14.3-32 32v8 8l8-8 8 8 8-8 8 8 8-8 8 8 8-8 8 8 8-8 8 8 8-8 8 8 8-8 8 8 8-8 8 8 8-8 8 8 8-8 8 8 8-8 8 8 8-8 8 8v-8 -8C2216.1 302.9 2201.8 288.6 2184.1 288.6zM2120.1 264.6c-4.4 0-8-3.6-8-8 0-4.4 3.6-8 8-8s8 3.6 8 8C2128.1 261 2124.5 264.6 2120.1 264.6z"/>
  <path fill="#E5E5E5" d="M2424.1 690.6h32v-50c0-26.5 21.5-48 48-48s48 21.5 48 48v50h32v-50c0-44.1-35.9-80-80-80s-80 35.9-80 80V690.6z"/>
  <path fill="#999999" d="M2504.1 592.6c26.5 0 48 21.5 48 48V738h-96v-97.3C2456.1 614.2 2477.7 592.6 2504.1 592.6L2504.1 592.6zM2504.1 576.6c-35.3 0-64 28.7-64 64V754h128V640.6C2568.1 605.3 2539.5 576.6 2504.1 576.6L2504.1 576.6z"/>
  <rect x="2400.1" y="674.6" fill="#78A5EF" width="104" height="174"/>
  <rect x="2504.1" y="674.6" fill="#4285F4" width="104" height="174"/>
  <rect x="2400.1" y="832" fill="#E5E5E5" width="208" height="16.7"/>
  <rect x="8" y="912" fill="#F4B400" width="483.2" height="64"/>
  <circle fill="#EA6C5C" cx="457" cy="944" r="8"/>
  <rect x="36" y="912" fill="#E5E5E5" width="8" height="16"/>
  <rect x="68" y="912" fill="#E5E5E5" width="8" height="16"/>
  <rect x="99.4" y="912" fill="#E5E5E5" width="8" height="16"/>
  <rect x="132" y="912" fill="#E5E5E5" width="8" height="16"/>
  <rect x="164" y="912" fill="#E5E5E5" width="8" height="16"/>
  <rect x="196" y="912" fill="#E5E5E5" width="8" height="16"/>
  <rect x="227.4" y="912" fill="#E5E5E5" width="8" height="16"/>
  <rect x="260" y="912" fill="#E5E5E5" width="8" height="16"/>
  <rect x="292" y="912" fill="#E5E5E5" width="8" height="16"/>
  <rect x="324" y="912" fill="#E5E5E5" width="8" height="16"/>
  <rect x="355.4" y="912" fill="#E5E5E5" width="8" height="16"/>
  <rect x="388" y="912" fill="#E5E5E5" width="8" height="16"/>
  <rect x="420" y="912" fill="#E5E5E5" width="8" height="16"/>
  <rect x="452.6" y="912" fill="#E5E5E5" width="8" height="16"/>
</svg>
