<?xml version="1.0" encoding="utf-8"?>
<!-- Generator: Adobe Illustrator 18.1.1, SVG Export Plug-In . SVG Version: 6.00 Build 0)  -->
<svg version="1.1" id="Layer_1" xmlns="http://www.w3.org/2000/svg" xmlns:xlink="http://www.w3.org/1999/xlink" x="0px" y="0px"
	 viewBox="0 0 383.2 414.6" enable-background="new 0 0 383.2 414.6" xml:space="preserve">
<g>
	<rect x="132.8" y="106.2" fill="#D4A87F" width="28.2" height="25.9"/>
	<polyline fill="none" stroke="#E6E6E6" stroke-width="20" stroke-linejoin="round" stroke-miterlimit="10" points="193,133 
		221.9,185.1 259,167.1 	"/>
	<polygon fill="#007895" points="270.1,149.7 279.5,171.1 246.2,189 235.7,164.4 	"/>
	<g>
		<rect x="101" y="264.3" fill="#E6E6E6" width="34.6" height="145.4"/>
		<circle fill="#007895" cx="118.3" cy="330.5" r="11.2"/>
		<path fill="#007895" d="M137,414.6c0-8.2-10-14.8-22.4-14.8c-12.4,0-22.4,6.6-22.4,14.8H137z"/>
	</g>
	<g>
		<rect x="158.2" y="264.3" fill="#E6E6E6" width="34.6" height="145.4"/>
		<circle fill="#007895" cx="175.5" cy="330.5" r="11.2"/>
		<path fill="#007895" d="M156.8,414.6c0-8.2,10-14.8,22.4-14.8c12.4,0,22.4,6.6,22.4,14.8H156.8z"/>
	</g>
	<g>
		<path fill="#E6E6E6" d="M152.4,10.4h-11c-22,0-40,18-40,40V116h91V50.4C192.4,28.4,174.4,10.4,152.4,10.4z"/>
		<rect x="189.7" y="56.9" fill="#E6E6E6" width="7.6" height="18.9"/>
		<rect x="96.5" y="56.9" fill="#E6E6E6" width="7.6" height="18.9"/>
		<g>
			<path fill="#1A1A1A" d="M103.9,66.3c0,19.5,19.3,35.3,43,35.3V31C123.1,31,103.9,46.8,103.9,66.3z"/>
			<path fill="#333333" d="M146.9,31v70.7c23.8,0,43-15.8,43-35.3C189.9,46.8,170.6,31,146.9,31z"/>
		</g>
	</g>
	<g>
		<g>
			<path fill="#D9D9D9" d="M47.4,165c1.1,0,2.2-0.2,3.3-0.6l47.5-16.9l-6.6-18.9l-38.3,13.6l-15.8-41.2l-18.7,7.2l19.3,50.3
				C39.6,162.6,43.4,165,47.4,165z"/>
		</g>
		<polygon fill="#007895" points="34.5,88.6 12.7,97 23.5,133.3 48.4,123.4 		"/>
		<g>
			<g>
				<path fill="#007895" d="M31.9,93.2l-13,6.1c-2.3,1.1-5.1,0.1-6.2-2.2L6.9,84.6l21.4-10L34.1,87C35.2,89.3,34.2,92.1,31.9,93.2z"
					/>
				
					<rect x="3.8" y="67.9" transform="matrix(0.9064 -0.4225 0.4225 0.9064 -32.1553 9.8383)" fill="#007895" width="4.5" height="19.2"/>
				
					<rect x="9.1" y="62.7" transform="matrix(0.9064 -0.4225 0.4225 0.9064 -30.0433 11.6874)" fill="#007895" width="4.5" height="21.8"/>
				
					<rect x="20.6" y="57.4" transform="matrix(0.9064 -0.4225 0.4225 0.9064 -26.6929 16.0559)" fill="#007895" width="4.5" height="21.8"/>
				
					<rect x="29.4" y="69.7" transform="matrix(0.9984 -5.620743e-02 5.620743e-02 0.9984 -4.4027 1.907)" fill="#007895" width="4.5" height="19"/>
				
					<rect x="14.5" y="58.3" transform="matrix(0.9064 -0.4225 0.4225 0.9064 -28.0511 13.6286)" fill="#007895" width="4.5" height="23.6"/>
			</g>
		</g>
	</g>
	<g>
		<polygon fill="#E6E6E6" points="146.5,128.7 147.2,234.9 196.3,234.9 196.3,218.1 197.8,193.3 202.2,128.7 		"/>
		<polygon fill="#D9D9D9" points="147.2,234.9 146.5,128.7 91.6,128.7 96,193.3 97.5,218.1 97.5,234.9 		"/>
		<path fill="#007895" d="M97,234.1v23.8c0,7,5.7,12.7,12.7,12.7h74.5c7,0,12.7-5.7,12.7-12.7v-23.8H97z"/>
		<rect x="97.7" y="110.5" fill="#006780" width="48.8" height="18.2"/>
		<rect x="146.5" y="110.5" fill="#007895" width="49.5" height="18.2"/>
		<circle fill="#FF5F67" cx="175.5" cy="164.7" r="11.2"/>
	</g>
	<g>
		<path fill="#007895" d="M268.8,152.7l0.3,14.4c0,2.5,2.2,4.6,4.7,4.5l13.7-0.3l-0.5-23.6l-13.7,0.3
			C270.8,148,268.7,150.1,268.8,152.7z"/>
		<g>
			<rect x="277.5" y="0" fill="#1A1A1A" width="8" height="414.6"/>
			<polygon fill="#006780" points="383.2,96.2 276.1,96.2 276.1,19.5 383.2,19.5 355.7,57.8 			"/>
			<rect x="276.1" y="19.5" fill="#007895" width="11.3" height="76.7"/>
		</g>
		<polygon fill="#007895" points="291.4,166.7 291.4,171.2 281.6,171.3 281.5,166.8 		"/>
		<polygon fill="#007895" points="292.6,160.3 292.3,164.9 281.4,165 281.3,160.4 		"/>
		<polygon fill="#007895" points="292.6,147.6 292.6,152.2 281,152.2 280.8,147.7 		"/>
		<polygon fill="#007895" points="271.1,151.1 275.2,149.3 281.3,161.4 277.1,163.3 		"/>
		<polygon fill="#007895" points="293.3,153.9 293.2,158.5 281.2,158.6 281.1,154.1 		"/>
	</g>
</g>
</svg>
