<?xml version="1.0" encoding="utf-8"?>
<!-- Generator: Adobe Illustrator 18.1.1, SVG Export Plug-In . SVG Version: 6.00 Build 0)  -->
<svg version="1.1" id="Layer_1" xmlns="http://www.w3.org/2000/svg" xmlns:xlink="http://www.w3.org/1999/xlink" x="0px" y="0px"
	 viewBox="0 0 95 95" enable-background="new 0 0 95 95" xml:space="preserve">
<g>
	<path fill="#E34F26" d="M47.5,93.7c-12.4,0-24-4.8-32.7-13.5C6.1,71.5,1.2,59.8,1.2,47.5c0-12.4,4.8-24,13.5-32.7
		C23.5,6.1,35.1,1.2,47.5,1.2c12.4,0,24,4.8,32.7,13.5c8.7,8.7,13.5,20.3,13.5,32.7c0,12.4-4.8,24-13.5,32.7
		C71.5,88.9,59.8,93.7,47.5,93.7z"/>
	<path fill="#F0742D" d="M47.5,2.5c24.8,0,45,20.1,45,45c0,24.8-20.1,45-45,45c-24.8,0-45-20.1-45-45C2.5,22.6,22.6,2.5,47.5,2.5
		 M47.5,0C41.1,0,34.9,1.3,29,3.7c-5.7,2.4-10.7,5.8-15.1,10.2C9.5,18.3,6.1,23.3,3.7,29C1.3,34.9,0,41.1,0,47.5
		C0,53.9,1.3,60.1,3.7,66c2.4,5.7,5.8,10.7,10.2,15.1c4.4,4.4,9.4,7.8,15.1,10.2c5.9,2.5,12.1,3.7,18.5,3.7c6.4,0,12.6-1.3,18.5-3.7
		c5.7-2.4,10.7-5.8,15.1-10.2c4.4-4.4,7.8-9.4,10.2-15.1c2.5-5.9,3.7-12.1,3.7-18.5c0-6.4-1.3-12.6-3.7-18.5
		c-2.4-5.7-5.8-10.7-10.2-15.1C76.7,9.5,71.6,6.1,66,3.7C60.1,1.3,53.9,0,47.5,0L47.5,0z"/>
	<path fill="#F1732D" d="M47.5,13.7v67.5c18.6,0,33.7-15.1,33.7-33.7C81.2,28.9,66.1,13.7,47.5,13.7z"/>
	<polygon fill="#F3F4F5" points="27.7,25.2 67.3,25.2 66.4,33.6 36.6,33.6 37.2,41.3 66.3,41.3 64.2,65.2 47.8,69.8 31.3,65.3 
		30.2,53 38.3,53 38.9,59.2 47.8,61.6 56.7,59.2 57.5,49.2 29.9,49.1 	"/>
</g>
</svg>
