<?xml version="1.0" encoding="utf-8"?>
<!-- Generator: Adobe Illustrator 18.1.1, SVG Export Plug-In . SVG Version: 6.00 Build 0)  -->
<svg version="1.1" id="Layer_1" xmlns="http://www.w3.org/2000/svg" xmlns:xlink="http://www.w3.org/1999/xlink" x="0px" y="0px"
	 viewBox="0 0 94.8 94.8" enable-background="new 0 0 94.8 94.8" xml:space="preserve">
<g>
	<path fill="#121828" d="M47.4,93.6c-12.4,0-24-4.8-32.7-13.5C6,71.4,1.2,59.8,1.2,47.4c0-12.4,4.8-24,13.5-32.7
		C23.4,6,35,1.2,47.4,1.2c12.4,0,24,4.8,32.7,13.5S93.6,35,93.6,47.4c0,12.4-4.8,24-13.5,32.7S59.8,93.6,47.4,93.6z"/>
	<path fill="#0AA6CA" d="M47.4,2.4c24.8,0,45,20.1,45,45c0,24.8-20.1,45-45,45c-24.8,0-45-20.1-45-45C2.4,22.6,22.6,2.4,47.4,2.4
		 M47.4-0.1c-6.4,0-12.6,1.3-18.5,3.7C23.3,6,18.2,9.5,13.8,13.8C9.5,18.2,6,23.3,3.6,28.9C1.2,34.8-0.1,41-0.1,47.4
		c0,6.4,1.3,12.6,3.7,18.5C6,71.5,9.5,76.6,13.8,81c4.4,4.4,9.4,7.8,15.1,10.2c5.9,2.5,12.1,3.7,18.5,3.7c6.4,0,12.6-1.3,18.5-3.7
		C71.5,88.8,76.6,85.3,81,81c4.4-4.4,7.8-9.4,10.2-15.1c2.5-5.9,3.7-12.1,3.7-18.5c0-6.4-1.3-12.6-3.7-18.5
		c-2.4-5.7-5.8-10.7-10.2-15.1C76.6,9.5,71.5,6,65.9,3.6C60,1.2,53.8-0.1,47.4-0.1L47.4-0.1z"/>
	<path fill="#0AA6CA" d="M47.4,13.7v67.5C66,81.1,81.1,66,81.1,47.4C81.1,28.8,66,13.7,47.4,13.7z"/>
	<g>
		<path fill="#F4F5F5" d="M40.5,58.3C31.6,52.5,28,41.9,31.2,33c-1.1,1-2,2.1-2.8,3.4c-6.2,9.4-2.9,22.5,7.3,29.2
			c10.2,6.7,23.5,4.5,29.7-4.9c0.8-1.3,1.5-2.6,2-3.9C60.5,63.2,49.3,64.1,40.5,58.3z"/>
		<path fill="#F4F5F5" d="M48.3,46.3c-7.1-4.7-10-13.2-7.5-20.3c-0.8,0.8-1.6,1.7-2.3,2.7c-5,7.6-2.3,18.1,5.9,23.4
			c8.2,5.4,18.9,3.6,23.8-4c0.7-1,1.2-2.1,1.6-3.2C64.4,50.2,55.4,50.9,48.3,46.3z"/>
		<path fill="#F4F5F5" d="M54.4,37c-4.6-3-6.5-8.5-4.8-13.1c-0.5,0.5-1,1.1-1.5,1.8c-3.2,4.9-1.5,11.7,3.8,15.2
			c5.3,3.5,12.2,2.3,15.4-2.6c0.4-0.7,0.8-1.3,1-2C64.8,39.6,59,40,54.4,37z"/>
	</g>
</g>
</svg>
