<?xml version="1.0" encoding="utf-8"?>
<!-- Generator: Adobe Illustrator 18.1.1, SVG Export Plug-In . SVG Version: 6.00 Build 0)  -->
<svg version="1.1" id="Layer_1" xmlns="http://www.w3.org/2000/svg" xmlns:xlink="http://www.w3.org/1999/xlink" x="0px" y="0px"
	 viewBox="0 0 94.8 94.8" enable-background="new 0 0 94.8 94.8" xml:space="preserve">
<g>
	<path fill="#705540" d="M47.4,93.6c-12.4,0-24-4.8-32.7-13.5C6,71.4,1.2,59.8,1.2,47.4c0-12.4,4.8-24,13.5-32.7
		C23.4,6,35,1.2,47.4,1.2c12.4,0,24,4.8,32.7,13.5c8.7,8.7,13.5,20.3,13.5,32.7c0,12.4-4.8,24-13.5,32.7
		C71.4,88.8,59.8,93.6,47.4,93.6z"/>
	<path fill="#36A348" d="M47.4,2.4c24.8,0,45,20.1,45,45c0,24.8-20.1,45-45,45c-24.8,0-45-20.1-45-45C2.4,22.6,22.6,2.4,47.4,2.4
		 M47.4-0.1c-6.4,0-12.6,1.3-18.5,3.7C23.3,6,18.2,9.5,13.8,13.8C9.5,18.2,6,23.3,3.6,28.9C1.2,34.8-0.1,41-0.1,47.4
		c0,6.4,1.3,12.6,3.7,18.5C6,71.5,9.5,76.6,13.8,81c4.4,4.4,9.4,7.8,15.1,10.2c5.9,2.5,12.1,3.7,18.5,3.7c6.4,0,12.6-1.3,18.5-3.7
		C71.5,88.8,76.6,85.3,81,81c4.4-4.4,7.8-9.4,10.2-15.1c2.5-5.9,3.7-12.1,3.7-18.5c0-6.4-1.3-12.6-3.7-18.5
		c-2.4-5.7-5.8-10.7-10.2-15.1C76.6,9.5,71.5,6,65.9,3.6C60,1.2,53.8-0.1,47.4-0.1L47.4-0.1z"/>
	<path fill="#36A348" d="M47.4,13.7v67.5C66,81.1,81.1,66,81.1,47.4S66,13.7,47.4,13.7z"/>
	<path fill="#F4F5F5" d="M47.4,20.1c0,0-32.4,28.9-1.3,47.2v0c0,0,0.7,6.4,0.5,7.4h1.8c0,0,0.3-7.5,0.8-7.8l0,0
		C79.3,48.5,47.4,20.1,47.4,20.1z"/>
</g>
</svg>
