<?xml version="1.0" encoding="utf-8"?>
<!-- Generator: Adobe Illustrator 18.1.1, SVG Export Plug-In . SVG Version: 6.00 Build 0)  -->
<svg version="1.1" id="Layer_1" xmlns="http://www.w3.org/2000/svg" xmlns:xlink="http://www.w3.org/1999/xlink" x="0px" y="0px"
	 viewBox="0 0 94.8 94.8" enable-background="new 0 0 94.8 94.8" xml:space="preserve">
<g>
	<path fill="#802631" d="M47.4,93.6c-12.4,0-24-4.8-32.7-13.5C6,71.4,1.2,59.8,1.2,47.4c0-12.4,4.8-24,13.5-32.7
		C23.4,6,35,1.2,47.4,1.2c12.4,0,24,4.8,32.7,13.5S93.6,35,93.6,47.4c0,12.4-4.8,24-13.5,32.7S59.8,93.6,47.4,93.6z"/>
	<path fill="#A83D38" d="M47.4,2.4c24.8,0,45,20.1,45,45c0,24.8-20.1,45-45,45c-24.8,0-45-20.1-45-45C2.4,22.6,22.6,2.4,47.4,2.4
		 M47.4-0.1c-6.4,0-12.6,1.3-18.5,3.7C23.3,6,18.2,9.5,13.8,13.8C9.5,18.2,6,23.3,3.6,28.9C1.2,34.8-0.1,41-0.1,47.4
		c0,6.4,1.3,12.6,3.7,18.5C6,71.5,9.5,76.6,13.8,81c4.4,4.4,9.4,7.8,15.1,10.2c5.9,2.5,12.1,3.7,18.5,3.7c6.4,0,12.6-1.3,18.5-3.7
		C71.5,88.8,76.6,85.3,81,81c4.4-4.4,7.8-9.4,10.2-15.1c2.5-5.9,3.7-12.1,3.7-18.5c0-6.4-1.3-12.6-3.7-18.5
		c-2.4-5.7-5.8-10.7-10.2-15.1C76.6,9.5,71.5,6,65.9,3.6C60,1.2,53.8-0.1,47.4-0.1L47.4-0.1z"/>
	<path fill="#A83D38" d="M47.4,13.7v67.5C66,81.1,81.1,66,81.1,47.4C81.1,28.8,66,13.7,47.4,13.7z"/>
	<g>
		<g>
			<polygon fill="#FFFFFF" points="64.4,30.7 64.4,31.9 66.6,32.2 66.6,31.3 			"/>
		</g>
		<g>
			<polygon fill="#FFFFFF" points="64.6,25.4 66.8,26.5 67.5,25.8 64.8,23.9 			"/>
		</g>
		<g>
			<polygon fill="#FFFFFF" points="56.1,22.3 59.7,22.5 59.9,24.6 56.5,24.3 			"/>
		</g>
		<g>
			<polygon fill="#FFFFFF" points="48,22.8 49.7,25 46.9,26.5 45.2,24 			"/>
		</g>
		<g>
			<polygon fill="#FFFFFF" points="37.6,28.7 40.4,30.7 38.2,33.2 35.3,31.2 			"/>
		</g>
		<g>
			<polygon fill="#FFFFFF" points="33.9,40.9 32.9,43.8 29,42.8 30.2,39.3 			"/>
		</g>
		<g>
			<polygon fill="#FFFFFF" points="26.6,53.9 30.1,54 29.6,58 25.9,57.9 			"/>
		</g>
		<g>
			<polygon fill="#FFFFFF" points="50.1,55.9 50.7,58.6 54.8,59 53.3,55.9 			"/>
		</g>
		<g>
			<polygon fill="#FFFFFF" points="48.8,49.4 52,50.9 51.9,48.3 49,46.6 			"/>
		</g>
		<g>
			<polygon fill="#FFFFFF" points="49.9,41.5 50.7,39.5 53.1,41.2 52.6,43.8 			"/>
		</g>
		<g>
			<polygon fill="#FFFFFF" points="53.3,35.2 55.3,33.9 56.8,36.1 55.5,37.8 			"/>
		</g>
		<g>
			<polygon fill="#FFFFFF" points="58.6,31.6 59.4,33.5 61,32.3 60.8,31.2 			"/>
		</g>
		<g>
			<path fill="#FFFFFF" d="M36.7,38c-7.1,13.4-5.4,25.6-5.4,25.6l19.7,0c-0.6-3.6-5.7-14-2.1-23.8c5.3-13.9,17.5-9.7,19.2-9l0.7-2.2
				C65.3,24.7,45.3,21.8,36.7,38z"/>
		</g>
	</g>
</g>
</svg>
