<?xml version="1.0" encoding="utf-8"?>
<!-- Generator: Adobe Illustrator 18.1.1, SVG Export Plug-In . SVG Version: 6.00 Build 0)  -->
<svg version="1.1" id="Layer_1" xmlns="http://www.w3.org/2000/svg" xmlns:xlink="http://www.w3.org/1999/xlink" x="0px" y="0px"
	 viewBox="0 0 94.8 94.8" enable-background="new 0 0 94.8 94.8" xml:space="preserve">
<g>
	<path fill="#802631" d="M47.4,93.6c-12.4,0-24-4.8-32.7-13.5C6,71.4,1.2,59.8,1.2,47.4c0-12.4,4.8-24,13.5-32.7
		C23.4,6,35,1.2,47.4,1.2c12.4,0,24,4.8,32.7,13.5S93.6,35,93.6,47.4c0,12.4-4.8,24-13.5,32.7S59.8,93.6,47.4,93.6z"/>
	<path fill="#A83D38" d="M47.4,2.4c24.8,0,45,20.1,45,45c0,24.8-20.1,45-45,45c-24.8,0-45-20.1-45-45C2.4,22.6,22.6,2.4,47.4,2.4
		 M47.4-0.1c-6.4,0-12.6,1.3-18.5,3.7C23.3,6,18.2,9.5,13.8,13.8C9.5,18.2,6,23.3,3.6,28.9C1.2,34.8-0.1,41-0.1,47.4
		c0,6.4,1.3,12.6,3.7,18.5C6,71.5,9.5,76.6,13.8,81c4.4,4.4,9.4,7.8,15.1,10.2c5.9,2.5,12.1,3.7,18.5,3.7c6.4,0,12.6-1.3,18.5-3.7
		C71.5,88.8,76.6,85.3,81,81c4.4-4.4,7.8-9.4,10.2-15.1c2.5-5.9,3.7-12.1,3.7-18.5c0-6.4-1.3-12.6-3.7-18.5
		c-2.4-5.7-5.8-10.7-10.2-15.1C76.6,9.5,71.5,6,65.9,3.6C60,1.2,53.8-0.1,47.4-0.1L47.4-0.1z"/>
	<path fill="#A83D38" d="M47.4,13.7v67.5C66,81.1,81.1,66,81.1,47.4C81.1,28.8,66,13.7,47.4,13.7z"/>
	<path fill="#F4F5F5" d="M63.7,31.7c-0.7-0.9-1.8-1.8-3.5-2.3l-10.1-0.5c0,0-8.9,3.7-9.2,3.9l-7,6.8l-3.6,8.1c0,0-2.8,13.1,4.9,15.5
		c0.8,0.2,1.7,0.4,2.7,0.3L63,61.9l2.1-26.2C65.1,35.7,65.2,33.6,63.7,31.7z M51.6,41.5c-1,1.6-2.4,3.3-4,4.9
		c-2,1.9-4.1,3.5-6.1,4.5c-3.2,1.6-6,1.9-7.3,0.5c-0.8-0.8-1-2.1-0.7-3.7c0.4-1.9,1.5-4.3,3.3-6.6c0.8-1,1.7-2,2.7-3
		c0.9-0.9,1.8-1.7,2.7-2.4c2.8-2.1,5.6-3.4,7.8-3.5c0.2,0,0.5,0,0.7,0c0.1,0,0.3,0,0.4,0c0.2,0,0.4,0.1,0.5,0.1
		c0.5,0.1,0.9,0.4,1.3,0.7C54.4,34.6,53.8,37.9,51.6,41.5z"/>
</g>
</svg>
