<svg xmlns="http://www.w3.org/2000/svg" xmlns:xlink="http://www.w3.org/1999/xlink" version="1.1" x="0" y="0" viewBox="0 0 750 500" enable-background="new 0 0 750 500" xml:space="preserve">
  <g id="Layer_3" display="none">
    <rect display="inline" fill="#86BBE2" width="750" height="500"/>
  </g>
  <g id="Layer_4" display="none">
    <g display="inline">
      <linearGradient id="SVGID_1_" gradientUnits="userSpaceOnUse" x1="252.68" y1="176" x2="252.68" y2="266.34">
        <stop offset="0" stop-color="#0F375B"/>
        <stop offset="1" stop-color="#FFFFFF"/>
      </linearGradient>
      <polygon fill="url(#SVGID_1_)" points="417.1 213.7 38.3 213.7 38.3 225.7 88.3 275.7 467.1 275.7 467.1 263.7 "/>
      <linearGradient id="SVGID_2_" gradientUnits="userSpaceOnUse" x1="447.91" y1="148.09" x2="573.14" y2="273.32">
        <stop offset="0" stop-color="#0F375B"/>
        <stop offset="1" stop-color="#FFFFFF"/>
      </linearGradient>
      <polygon fill="url(#SVGID_2_)" points="535.1 167.7 523.5 167.7 523.5 167.7 519.6 163.8 516.5 163.8 516.5 167.7 516.4 167.7 516.4 167.7 512.5 163.8 509.4 163.8 509.4 167.7 509.3 167.7 509.3 167.7 505.4 163.8 502.3 163.8 502.3 167.7 502.2 167.7 502.2 167.7 498.3 163.8 495.2 163.8 495.2 167.7 495.1 167.7 495.1 167.7 491.2 163.8 488.1 163.8 488.1 167.7 488.1 167.7 488.1 167.7 484.1 163.8 481 163.8 481 167.7 465.5 167.7 465.5 233.2 525.5 293.2 595.1 293.2 595.1 227.7 "/>
      <linearGradient id="SVGID_3_" gradientUnits="userSpaceOnUse" x1="455.6" y1="223.58" x2="566.75" y2="334.74">
        <stop offset="0" stop-color="#0F375B"/>
        <stop offset="1" stop-color="#FFFFFF"/>
      </linearGradient>
      <polygon fill="url(#SVGID_3_)" points="594.4 325.2 543.8 273.3 541.2 274.2 541.1 273.8 540.2 274.1 540.3 274.5 514.5 274.6 514.5 274.6 514.4 274.6 513.9 274.6 513.7 273.8 511.1 274.7 511.1 274.7 510.9 274.3 510 274.6 510 274.7 507.7 274.7 508 314.4 558 364.4 592.6 364.2 592.3 325.9 "/>
      <linearGradient id="SVGID_4_" gradientUnits="userSpaceOnUse" x1="584.67" y1="78.36" x2="705.35" y2="78.36">
        <stop offset="0" stop-color="#0F375B"/>
        <stop offset="1" stop-color="#FFFFFF"/>
      </linearGradient>
      <polygon fill="url(#SVGID_4_)" points="725 120.9 725 87.1 675 37.1 659.5 37.1 659.5 46 653.2 46 645.1 37.7 634.4 35.8 633 43.6 627.9 38 622.6 36.8 618.2 56 603.4 119.7 604.7 120.9 "/>
      <linearGradient id="SVGID_5_" gradientUnits="userSpaceOnUse" x1="447" y1="76.71" x2="597.83" y2="76.71">
        <stop offset="0" stop-color="#0F375B"/>
        <stop offset="1" stop-color="#FFFFFF"/>
      </linearGradient>
      <polygon fill="url(#SVGID_5_)" points="454.1 121.3 624.3 121.3 624.3 118.4 574.3 68.4 571.5 68.4 552.7 49 546.9 49 546.7 48.8 545.6 47.7 544.2 46.4 536.5 38.7 534.1 36.2 531.6 33.8 531.6 33.8 530 32.1 529.8 32.1 485.1 32.1 485.1 49 475 49 475 68.4 465.8 68.4 453.3 68.4 453.3 121 454.1 121 "/>
      <linearGradient id="SVGID_6_" gradientUnits="userSpaceOnUse" x1="356" y1="104.03" x2="444.04" y2="104.03">
        <stop offset="0" stop-color="#0F375B"/>
        <stop offset="1" stop-color="#FFFFFF"/>
      </linearGradient>
      <path fill="url(#SVGID_6_)" d="M370.9 119C370.9 119 370.9 119 370.9 119c0.1 0.3 0.3 0.5 0.5 0.7 0 0 0 0 0 0l1.1 1.1h82.8l-31-31c-0.1-0.1-0.3-0.2-0.5-0.3 -0.1 0-0.1 0-0.2-0.1 -0.1-0.1-0.3-0.1-0.4-0.1 -0.1 0-0.1 0-0.2 0 -0.2 0-0.4-0.1-0.6-0.1l-33.3 0 -1.6-2.2h-5v0.6h0.3v1.6h-3.7 -5.3c-0.2 0-0.4 0-0.6 0.1 -0.1 0-0.1 0-0.2 0 -0.1 0-0.3 0.1-0.4 0.1 -0.1 0-0.1 0-0.2 0.1 -0.2 0.1-0.3 0.2-0.5 0.3 -0.1 0-0.1 0.1-0.2 0.2 -0.1 0.1-0.2 0.1-0.2 0.2 -0.1 0.1-0.1 0.1-0.2 0.2 -0.1 0.1-0.1 0.1-0.1 0.2 -0.2 0.2-0.3 0.4-0.4 0.7 0 0 0 0 0 0 -0.2 0.4-0.3 0.9-0.3 1.4v7.3 17.4C370.5 118.1 370.6 118.6 370.9 119L370.9 119z"/>
      <linearGradient id="SVGID_7_" gradientUnits="userSpaceOnUse" x1="15.11" y1="151.98" x2="208.97" y2="151.98">
        <stop offset="0" stop-color="#0F375B"/>
        <stop offset="1" stop-color="#FFFFFF"/>
      </linearGradient>
      <path fill="url(#SVGID_7_)" d="M99 213.7h1.9 142.9c0-0.1 0-0.2 0-0.3 0-0.3 0-0.6 0.1-0.9 0-0.7 0.1-1.5 0.1-2.2 0-14.3-5.9-27.2-15.4-36.4l-63.9-63.9c-9.2-9.5-22.1-15.4-36.4-15.4 -5.7 0-11.2 1-16.4 2.7l-6.6-6.9 -2.2 1 -2.2 1 1.5 3.2c-18 9.3-30.3 28.1-30.3 49.8 0 15.8 6.5 30 17 40.2l20 20C104.7 207.6 101.2 210.4 99 213.7z"/>
      <linearGradient id="SVGID_8_" gradientUnits="userSpaceOnUse" x1="174.77" y1="113.57" x2="280.41" y2="219.21">
        <stop offset="0" stop-color="#0F375B"/>
        <stop offset="1" stop-color="#FFFFFF"/>
      </linearGradient>
      <path fill="url(#SVGID_8_)" d="M343.8 213.7c-0.2-0.1-0.3-0.3-0.5-0.4 0-0.1-0.1-0.1-0.1-0.2 -0.2-0.2-0.4-0.5-0.7-0.7 0-0.1-0.1-0.1-0.1-0.2 -0.2-0.2-0.4-0.5-0.7-0.7 0-0.1-0.1-0.1-0.1-0.2 -0.2-0.2-0.4-0.5-0.7-0.7 0-0.1-0.1-0.1-0.1-0.2 -0.1-0.1-0.1-0.1-0.2-0.2v-4.9c0-2.8-1.2-5.3-3.2-7l-49.2-49.2c-1.7-1.9-4.2-3.2-7-3.2h-72.7c-5.2 0-9.4 4.2-9.4 9.4v52h-2v1.9 4.3h0.8H343.8z"/>
      <linearGradient id="SVGID_9_" gradientUnits="userSpaceOnUse" x1="330.13" y1="138.87" x2="410.53" y2="219.27">
        <stop offset="0" stop-color="#0F375B"/>
        <stop offset="1" stop-color="#FFFFFF"/>
      </linearGradient>
      <polygon fill="url(#SVGID_9_)" points="454.9 213.7 454.9 198.5 404.9 148.5 339.8 148.5 339.8 213.7 340.6 213.7 "/>
      <linearGradient id="SVGID_10_" gradientUnits="userSpaceOnUse" x1="542.83" y1="348.76" x2="720.24" y2="348.76">
        <stop offset="0" stop-color="#0F375B"/>
        <stop offset="1" stop-color="#FFFFFF"/>
      </linearGradient>
      <path fill="url(#SVGID_10_)" d="M750 351.7l-63.3-63.1 -86.5 0 0.4 89h-18.4l-20.2-0.1c0.5 9 3.8 16.9 7.9 22.3l-9.4 0.2 8.9 8.9H750V351.7z"/>
      <linearGradient id="SVGID_11_" gradientUnits="userSpaceOnUse" x1="437.11" y1="95.23" x2="642.68" y2="300.8">
        <stop offset="0" stop-color="#0F375B"/>
        <stop offset="1" stop-color="#FFFFFF"/>
      </linearGradient>
      <path fill="url(#SVGID_11_)" d="M750 326l-15.9-15.9 13.4-13.4c1.6-1.6 1.8-4 0.4-5.4l-7.7-7.5 3-3c0.8-0.8 1.2-1.8 1.3-2.8 0-1.1-0.3-2.1-1.1-2.8L642.4 174c-1.5-1.5-4-1.4-5.6 0.2l-8.4 8.4 -0.8-0.8 -5.7 5.7 -9.2-9.2L561 215.7l9.5 9.5c-2 2-3.3 4.8-3.3 8 0 3.5 1.6 6.7 4.2 8.7l98.4 98.4c1.5 1.8 3.5 3.1 5.8 3.8l-6.1 49c-1.7-0.1-3.5-0.2-5.3-0.2 -1.1 0-2.2 0-3.3 0.1 0 0-0.1 0-0.1 0 -1.4 0.1-2.7 0.1-4 0.3l-4.9-6.2h-4.9v2.6h-1.5v5.4c-11.4 2.8-19.5 7.9-21.1 14h2.3H750V326z"/>
      <linearGradient id="SVGID_12_" gradientUnits="userSpaceOnUse" x1="495.67" y1="401.88" x2="557.13" y2="401.88">
        <stop offset="0" stop-color="#0F375B"/>
        <stop offset="1" stop-color="#FFFFFF"/>
      </linearGradient>
      <path fill="url(#SVGID_12_)" d="M502.5 409h0.9 54.9l-7-7c0 0 0 0 0 0 -4.5-4.3-13-7.2-22.7-7.2 -12 0-22.2 4.5-25.2 10.5 0.2-0.3 0.3-0.4 0.1-0.1C502.8 406.4 502.5 407.7 502.5 409z"/>
      <linearGradient id="SVGID_13_" gradientUnits="userSpaceOnUse" x1="293.91" y1="278.8" x2="443.91" y2="429.8">
        <stop offset="0" stop-color="#0F375B"/>
        <stop offset="1" stop-color="#FFFFFF"/>
      </linearGradient>
      <path fill="url(#SVGID_13_)" d="M622.4 409c-0.6-1-1.4-1.9-2.4-2.4L472.5 259c-1-1.9-3.1-2.7-5.4-2.7L243 256.1c-3.2 0-5.9 2.6-5.9 5.9L237 397.1l-17.7 0v7.5l9.2 4.4H622.4z"/>
      <linearGradient id="SVGID_14_" gradientUnits="userSpaceOnUse" x1="105.61" y1="260.05" x2="230.68" y2="385.12">
        <stop offset="0" stop-color="#0F375B"/>
        <stop offset="1" stop-color="#FFFFFF"/>
      </linearGradient>
      <polygon fill="url(#SVGID_14_)" points="291.4 408 290.6 407.9 290.7 407.2 289.8 406.4 289 406.3 289.1 405.6 288.7 405.2 287.1 365.1 287.1 365.1 187.1 265.1 187.1 265.1 177 265.5 175.6 265.5 178 327.4 176.4 325.8 174.3 325.9 174.4 326.7 174.5 328.5 173.5 328.6 173.6 329.8 172.5 329.9 172.5 330.1 172.6 330.3 173.3 343.3 174.7 347.9 170.9 347.9 170.9 352.7 173.2 354.3 178.1 409 179.6 409 292.3 409 292.3 408.9 "/>
      <linearGradient id="SVGID_15_" gradientUnits="userSpaceOnUse" x1="23.26" y1="265.04" x2="154.22" y2="396">
        <stop offset="0" stop-color="#0F375B"/>
        <stop offset="1" stop-color="#FFFFFF"/>
      </linearGradient>
      <polygon fill="url(#SVGID_15_)" points="200 409 200 338.3 150 288.3 64.5 289 63.8 382.8 63.8 409 "/>
      <linearGradient id="SVGID_16_" gradientUnits="userSpaceOnUse" x1="57.47" y1="466.49" x2="293.63" y2="466.49">
        <stop offset="0" stop-color="#0F375B"/>
        <stop offset="1" stop-color="#FFFFFF"/>
      </linearGradient>
      <polygon fill="url(#SVGID_16_)" points="293.6 500 228.1 433 227.4 433 196 433 195.4 433 90.2 433 89.5 433 58.2 433 57.5 433 57.5 433.7 57.5 466.5 57.5 467.2 57.5 500 59.1 500 "/>
      <linearGradient id="SVGID_17_" gradientUnits="userSpaceOnUse" x1="526.79" y1="354.87" x2="691.51" y2="519.59">
        <stop offset="0" stop-color="#0F375B"/>
        <stop offset="1" stop-color="#FFFFFF"/>
      </linearGradient>
      <polygon fill="url(#SVGID_17_)" points="750 500 750 448 711.7 409 711 409 679.7 409 679 409 573.8 409 573.2 409 541.8 409 541.1 409 541.1 410 541.1 454.5 541.1 455.5 541.1 500 541.9 500 "/>
      <linearGradient id="SVGID_18_" gradientUnits="userSpaceOnUse" x1="375" y1="352" x2="375" y2="486.18">
        <stop offset="0" stop-color="#0F375B"/>
        <stop offset="1" stop-color="#FFFFFF"/>
      </linearGradient>
      <polygon fill="url(#SVGID_18_)" points="711.7 409 38.3 409 38.3 433 105.3 500 711.7 500 "/>
      <linearGradient id="SVGID_19_" gradientUnits="userSpaceOnUse" x1="542.3" y1="81" x2="542.3" y2="175.78">
        <stop offset="0" stop-color="#0F375B"/>
        <stop offset="1" stop-color="#FFFFFF"/>
      </linearGradient>
      <polygon fill="url(#SVGID_19_)" points="750 159.2 711.7 120.9 334.6 120.9 334.6 132.9 384.6 182.9 750 182.9 "/>
    </g>
  </g>
  <g id="Layer_2">
    <rect x="600" y="288.3" fill="#FFFFFF" width="86.7" height="120.7"/>
    <rect x="600" y="288.3" fill="#06273F" width="86.7" height="94.7"/>
    <path fill="#FFFFFF" d="M601.5 289.8h83.7v91.7h-83.7V289.8L601.5 289.8zM600 288.3V383h86.7v-94.7H600L600 288.3z"/>
    <circle fill="#0F375B" cx="642" cy="339.3" r="36.3"/>
    <circle fill="#175B8E" cx="642" cy="339.3" r="28"/>
    <circle fill="#06273F" cx="642" cy="339.3" r="17.8"/>
    <circle fill="#0F375B" cx="612.2" cy="299.8" r="7.8"/>
    <circle fill="#175B8E" cx="612.2" cy="299.8" r="6.1"/>
    <circle fill="#06273F" cx="612.2" cy="299.8" r="3.4"/>
    <path fill="#08344F" d="M644.5 326c-7.4 0-13.8 4-17.4 9.9 1.6-6.8 7.6-11.9 14.9-11.9 3.5 0 6.7 1.2 9.3 3.2C649.2 326.4 646.9 326 644.5 326z"/>
    <rect x="63.3" y="288.3" fill="#FFFFFF" width="86.7" height="120.7"/>
    <rect x="63.3" y="288.3" fill="#06273F" width="86.7" height="94.7"/>
    <path fill="#FFFFFF" d="M148.5 289.8v91.7H64.8v-91.7H148.5L148.5 289.8zM150 288.3H63.3V383H150V288.3L150 288.3z"/>
    <circle fill="#0F375B" cx="108" cy="339.3" r="36.3"/>
    <circle fill="#175B8E" cx="108" cy="339.3" r="28"/>
    <circle fill="#06273F" cx="108" cy="339.3" r="17.8"/>
    <circle fill="#0F375B" cx="137.8" cy="299.8" r="7.8"/>
    <circle fill="#175B8E" cx="137.8" cy="299.8" r="6.1"/>
    <circle fill="#06273F" cx="137.8" cy="299.8" r="3.4"/>
    <path fill="#08344F" d="M105.5 326c7.4 0 13.8 4 17.4 9.9 -1.6-6.8-7.6-11.9-14.9-11.9 -3.5 0-6.7 1.2-9.3 3.2C100.8 326.4 103.1 326 105.5 326z"/>
    <circle fill="#06273F" cx="81.7" cy="394" r="7.4"/>
    <circle fill="#0F375B" cx="81.7" cy="394" r="6.9"/>
    <circle fill="#00FF01" cx="86.7" cy="404" r="1.3"/>
    <circle fill="#FF6501" cx="76.7" cy="404" r="1.3"/>
    <rect x="334.6" y="120.9" fill="#4F1C00" width="377.1" height="12"/>
    <rect x="38.3" y="213.7" fill="#4F1C00" width="378.8" height="12"/>
    <path fill="#F6F5F5" d="M238.6 409V261.7c0-2.3 1.8-4.1 4.1-4.1h224.6c2.3 0 4.1 1.8 4.1 4.1V409h1.8V261.7c0-3.2-2.6-5.9-5.9-5.9H242.7c-3.2 0-5.9 2.6-5.9 5.9V409H238.6z"/>
    <path fill="#0F375B" d="M471.4 409V261.7c0-2.3-1.8-4.1-4.1-4.1H242.7c-2.3 0-4.1 1.8-4.1 4.1V409H471.4z"/>
    <rect x="219.2" y="396.9" fill="#FFFFFF" width="271.6" height="7.6"/>
    <polygon fill="#A0A0A0" points="490.8 404.6 219.2 404.6 228 409 482 409 "/>
    <path fill="#A0A0A0" d="M339.8 396.9c0.3 2.2 2.1 3.8 4.4 3.8H380c2.2 0 4.1-1.7 4.3-3.8H339.8z"/>
    <rect x="246.1" y="263.9" fill="#D3F4EF" width="217.8" height="125.7"/>
    <path fill="#FFFFFF" d="M520.5 397.4c12-1 15.2 6.7 23.1 8.1 4.9 0.9 7.9-0.6 7.7-3.5 -4.5-4.3-13-7.2-22.7-7.2 -12 0-22.2 4.5-25.2 10.5C505 402.7 509.5 398.3 520.5 397.4z"/>
    <path fill="#0F375B" d="M503.5 405c0.1-0.2 0.2-0.4 0.3-0.6C503.7 404.6 503.6 404.8 503.5 405z"/>
    <path fill="#B9ACAD" d="M551.2 402c0.2 2.9-2.8 4.4-7.7 3.5 -7.9-1.5-11.1-9.2-23.1-8.1 -10.8 0.9-15.3 5.2-17 7.8 -0.6 1.2-1 2.5-1 3.8h52.2C554.6 406.4 553.4 404.1 551.2 402z"/>
    <path fill="#E7E1E2" d="M648 191.3c-1.4-1.4-3.8-1.2-5.4 0.4l-2.6 2.6c-1.2 1.2-3.1 1.3-4.2 0.2l-1.1-1.1c-1.1-1.1-1-3 0.2-4.2l8.5-8.5c0.8-0.8 1.2-1.8 1.3-2.8 0-1.1-0.3-2.1-1.1-2.8l-1.1-1.1c-1.5-1.5-4-1.4-5.6 0.2l-24.2 24.2 0.7 0.7 24.2-24.2c1.2-1.2 3.1-1.3 4.2-0.2l1.1 1.1c0.5 0.5 0.8 1.3 0.8 2.1 0 0.8-0.4 1.6-1 2.2l-8.5 8.5c-1.6 1.6-1.7 4.1-0.2 5.6l1.1 1.1c1.5 1.5 4 1.4 5.6-0.2l2.6-2.6c1.2-1.2 3-1.4 4-0.4 1 1 0.8 2.8-0.4 4l-20.5 20.5 0.7 0.7 20.5-20.5C649.2 195.1 649.4 192.6 648 191.3z"/>
    <rect x="622.7" y="181.1" transform="matrix(0.7074 0.7068 -0.7068 0.7074 315.0551 -386.5478)" fill="#E7E1E2" width="3.3" height="12.3"/>
    <rect x="624.2" y="181.7" transform="matrix(0.7076 0.7067 -0.7067 0.7076 315.5186 -386.7247)" fill="#B9ACAD" width="1.7" height="12.3"/>
    <circle fill="#F9A21D" cx="578.5" cy="233.2" r="11.2"/>
    <circle fill="#E7E1E2" cx="687.3" cy="278.1" r="10.5"/>
    <circle fill="#B9ACAD" cx="687.3" cy="278.1" r="5.8"/>
    <path fill="#B9ACAD" d="M687.3 288.7c-1.7 0-3.3-0.4-4.8-1.1L669 396.9l11 1.4 13.9-111.8C692.1 287.8 689.8 288.7 687.3 288.7z"/>
    <path fill="#E7E1E2" d="M687.3 288.7c-1.7 0-3.3-0.4-4.8-1.1L669 396.9l5.3 0.7 13.5-108.9C687.7 288.6 687.5 288.7 687.3 288.7z"/>
    <path fill="#B9ACAD" d="M687.3 267.6c0.1 0 0.2 0 0.3 0L625.7 213l-7.3 8.3 59.4 52.4C679.5 270.1 683.1 267.6 687.3 267.6z"/>
    <path fill="#E7E1E2" d="M681.4 269.5L622 217.2l-3.7 4.2 59.4 52.4C678.6 272 679.8 270.5 681.4 269.5z"/>
    <path fill="#E7E1E2" d="M704 409c-2.4-9.1-19.3-16.1-39.9-16.1 -20.5 0-37.5 7-39.9 16.1H704z"/>
    <path fill="#B9ACAD" d="M664.2 392.9c-2.3 0-4.5 0.1-6.7 0.3 17.4 1.3 31.1 7.8 33.2 15.9H704C701.6 399.9 684.7 392.9 664.2 392.9z"/>
    <path fill="#E7E1E2" d="M649.3 389.6h-4v8.9c1 0.4 2 0.9 3 1.5 0.3 0.2 0.6 0.4 0.9 0.6 1.6 1 2.9 2.2 4 3.4v-14.4H649.3z"/>
    <rect x="646.9" y="387" fill="#F34110" width="4.9" height="2.6"/>
    <rect x="619.7" y="210.5" transform="matrix(-0.6614 0.7501 -0.7501 -0.6614 1209.485 -101.6271)" fill="#B9ACAD" width="16" height="23.4"/>
    <rect x="621.1" y="213.5" transform="matrix(-0.6614 0.75 -0.75 -0.6614 1207.3552 -94.6511)" fill="#E7E1E2" width="8" height="23.4"/>
    <polygon fill="#E7E1E2" points="623 188.7 612.6 178.2 561 215.7 578.5 233.2 "/>
    <polygon fill="#B9ACAD" points="633.5 199.1 623 188.7 578.5 233.2 596 250.7 "/>
    <path fill="#F47106" d="M611.5 385.2c-0.9-2.8-4.1-4.5-8.1-4.5 -1.5 0-3 0.2-4.6 0.7 -5.8 1.8-9.5 6.4-8.3 10.3 0.9 2.8 4.1 4.5 8.1 4.5 1.5 0 3-0.2 4.6-0.7C609 393.7 612.7 389.1 611.5 385.2zM602.3 392.6c-1.2 0.4-2.5 0.6-3.7 0.6 -2.6 0-4.8-1-5.2-2.4 -0.4-1.2 0.6-2.6 1-3.1 1.2-1.5 3.1-2.7 5.3-3.4 1.2-0.4 2.5-0.6 3.7-0.6 2.6 0 4.8 1 5.2 2.4C609.3 388.1 606.7 391.3 602.3 392.6z"/>
    <path fill="#F9A21D" d="M561.7 377.3c0.9 16.7 9.7 29.9 20.5 29.9 10.8 0 19.7-13.2 20.5-29.9H561.7z"/>
    <path fill="#F47106" d="M582.2 407.2c10.8 0 19.7-13.2 20.5-29.9h-20.5V407.2z"/>
    <path fill="#F47106" d="M604.2 399.6c-3.9 5.5-12.3 9.3-22 9.3s-18.1-3.8-22-9.3H604.2z"/>
    <path fill="#F9A21D" d="M582.2 399.6v9.3c-9.7 0-18.1-3.8-22-9.3H582.2z"/>
    <path fill="#FFFFFF" d="M583.6 374.9c0 0-5.8-4.9-5.8-10.6 0-5.7 5.8-11.8 5.8-18.8s-1.3-13.1-1.3-13.1 3.8 7.9 3.8 14.1 -5.8 13.2-5.8 17.1C580.2 370.4 583.6 374.9 583.6 374.9z"/>
    <path fill="#FFFFFF" d="M590.1 347.8c0 0 3.7 3.1 3.7 6.8 0 3.6-3.7 7.6-3.7 12 0 4.5 0.9 8.3 0.9 8.3s-2.5-5-2.5-9c0-3.9 3.7-8.4 3.7-10.9C592.2 350.6 590.1 347.8 590.1 347.8z"/>
    <path fill="#FFFFFF" d="M571.8 349.5c0 0 2.8 2.3 2.8 5 0 2.7-2.8 5.6-2.8 8.9 0 3.3 0.6 6.2 0.6 6.2s-1.8-3.7-1.8-6.7c0-2.9 2.8-6.3 2.8-8.1C573.4 351.6 571.8 349.5 571.8 349.5z"/>
    <rect x="339.8" y="148.5" fill="#0F375B" width="65.2" height="65.2"/>
    <polygon fill="#0C314C" points="339.8 213.7 339.8 213.7 339.8 148.5 404.9 148.5 "/>
    <rect x="345.6" y="154.3" fill="#E7E1E2" width="53.6" height="53.6"/>
    <rect x="378.7" y="160.1" transform="matrix(0.7239 0.6899 -0.6899 0.7239 224.7321 -213.5116)" fill="#0F375B" width="0.7" height="27.9"/>
    <rect x="367.1" y="167.8" transform="matrix(0.5482 -0.8363 0.8363 0.5482 17.2403 387.7514)" fill="#0F375B" width="0.7" height="20.3"/>
    <rect x="376.9" y="176.8" transform="matrix(0.8461 -0.533 0.533 0.8461 -42.47 229.9948)" fill="#FF6501" width="0.2" height="23.4"/>
    <circle fill="#FF6501" cx="372.4" cy="181.1" r="0.8"/>
    <circle fill="#E7E1E2" cx="372.4" cy="181.1" r="0.5"/>
    <polygon opacity="0.3" fill="#FFFFFF" points="346.8 206.7 346.8 206.7 346.8 155.5 397.9 155.5 "/>
    <rect x="215" y="149.8" fill="#0F375B" width="0.7" height="37.6"/>
    <circle fill="#06273F" cx="215.3" cy="193.7" r="7.4"/>
    <path fill="#0F375B" d="M215.3 186.3v14.8c4.1 0 7.4-3.3 7.4-7.4C222.7 189.6 219.4 186.3 215.3 186.3z"/>
    <circle fill="#175B8E" cx="218.1" cy="189.6" r="1.4"/>
    <circle fill="#2282B2" cx="218.1" cy="189.6" r="0.9"/>
    <rect x="229.8" y="149.8" fill="#0F375B" width="0.7" height="37.6"/>
    <circle fill="#06273F" cx="230.1" cy="193.7" r="7.4"/>
    <path fill="#0F375B" d="M230.1 186.3v14.8c4.1 0 7.4-3.3 7.4-7.4C237.5 189.6 234.2 186.3 230.1 186.3z"/>
    <circle fill="#175B8E" cx="232.8" cy="189.6" r="1.4"/>
    <circle fill="#2282B2" cx="232.8" cy="189.6" r="0.9"/>
    <rect x="244.5" y="149.8" fill="#0F375B" width="0.7" height="37.6"/>
    <circle fill="#06273F" cx="244.8" cy="193.7" r="7.4"/>
    <path fill="#0F375B" d="M244.8 186.3v14.8c4.1 0 7.4-3.3 7.4-7.4C252.2 189.6 248.9 186.3 244.8 186.3z"/>
    <circle fill="#175B8E" cx="247.6" cy="189.6" r="1.4"/>
    <circle fill="#2282B2" cx="247.6" cy="189.6" r="0.9"/>
    <rect x="259.3" y="149.8" fill="#0F375B" width="0.7" height="37.6"/>
    <circle fill="#06273F" cx="259.6" cy="193.7" r="7.4"/>
    <path fill="#0F375B" d="M259.6 186.3v14.8c4.1 0 7.4-3.3 7.4-7.4C267 189.6 263.7 186.3 259.6 186.3z"/>
    <circle fill="#175B8E" cx="262.4" cy="189.6" r="1.4"/>
    <circle fill="#2282B2" cx="262.4" cy="189.6" r="0.9"/>
    <rect x="285.3" y="145.4" transform="matrix(0.7411 -0.6714 0.6714 0.7411 -36.2945 234.3089)" fill="#0F375B" width="0.7" height="37.6"/>
    <circle fill="#06273F" cx="302.5" cy="182.8" r="7.4"/>
    <path fill="#0F375B" d="M297.5 177.3l9.9 10.9c3-2.7 3.2-7.4 0.5-10.4C305.2 174.8 300.6 174.6 297.5 177.3z"/>
    <circle fill="#175B8E" cx="301.8" cy="177.9" r="1.4"/>
    <circle fill="#2282B2" cx="301.8" cy="177.9" r="0.9"/>
    <rect x="197.2" y="209.4" fill="#B9ACAD" width="95.4" height="4.3"/>
    <path fill="#E7E1E2" d="M290.6 207.5v-52c0-5.2-4.2-9.4-9.4-9.4h-72.7c-5.2 0-9.4 4.2-9.4 9.4v52h-2v1.9h95.4v-1.9H290.6zM204.9 207.5v-52c0-2 1.6-3.6 3.6-3.6h72.7c2 0 3.6 1.6 3.6 3.6v52H204.9z"/>
    <path fill="#B9ACAD" d="M286.6 207.5L286.6 207.5v-52c0-2.9-2.4-5.3-5.3-5.3h-72.7c-2.9 0-5.3 2.4-5.3 5.3v52 0H286.6zM204.9 155.5c0-2 1.6-3.6 3.6-3.6h72.7c2 0 3.6 1.6 3.6 3.6v52h-79.9V155.5z"/>
    <polygon fill="#F9A21D" points="199 319.3 199 318.1 195 317.9 192 380.6 196 380.8 198.9 319.7 199.5 319.7 198.8 332.7 199.4 332.7 200 319.8 200 319.6 200 319.3 "/>
    <rect x="193.5" y="317.9" transform="matrix(0.9988 4.829194e-02 -4.829194e-02 0.9988 17.0952 -8.9857)" fill="#F47106" width="2" height="62.8"/>
    <rect x="196.1" y="315.3" transform="matrix(0.9988 4.809532e-02 -4.809532e-02 0.9988 15.4566 -9.1124)" fill="#F47106" width="2.1" height="2.7"/>
    <rect x="196.1" y="315.3" transform="matrix(0.9988 4.806776e-02 -4.806776e-02 0.9988 15.4023 -9.1106)" fill="#F9A21D" width="2.1" height="0.8"/>
    <rect x="178.2" y="265.3" transform="matrix(0.9992 -3.874586e-02 3.874586e-02 0.9992 -12.7605 7.3769)" fill="#F7CD1E" width="11.5" height="135.3"/>
    <rect x="178.2" y="265.5" transform="matrix(0.9992 -3.883943e-02 3.883943e-02 0.9992 -12.8023 7.2003)" fill="#E5BB07" width="1.4" height="135.3"/>
    <rect x="188.7" y="265.1" transform="matrix(0.9992 -3.874950e-02 3.874950e-02 0.9992 -12.7497 7.5826)" fill="#FFE783" width="1" height="135.3"/>
    <rect x="182.9" y="266.5" transform="matrix(0.9993 -3.870252e-02 3.870252e-02 0.9993 -10.1925 7.3426)" fill="#D38200" width="3.3" height="0.8"/>
    <rect x="183.7" y="268.9" transform="matrix(0.9992 -3.890242e-02 3.890242e-02 0.9992 -10.3295 7.4001)" fill="#D38200" width="2.6" height="0.5"/>
    <rect x="183.9" y="273.3" transform="matrix(0.9993 -3.851629e-02 3.851629e-02 0.9993 -10.3982 7.3345)" fill="#D38200" width="2.6" height="0.5"/>
    <rect x="184" y="277.7" transform="matrix(0.9992 -3.890242e-02 3.890242e-02 0.9992 -10.6725 7.42)" fill="#D38200" width="2.6" height="0.5"/>
    <rect x="184.2" y="282.1" transform="matrix(0.9992 -3.886531e-02 3.886531e-02 0.9992 -10.8339 7.4228)" fill="#D38200" width="2.6" height="0.5"/>
    <rect x="184.4" y="286.5" transform="matrix(0.9993 -3.855639e-02 3.855639e-02 0.9993 -10.9189 7.3719)" fill="#D38200" width="2.6" height="0.5"/>
    <rect x="184.5" y="291" transform="matrix(0.9992 -3.886380e-02 3.886380e-02 0.9992 -11.1762 7.4424)" fill="#D38200" width="2.6" height="0.5"/>
    <rect x="184.7" y="295.4" transform="matrix(0.9993 -3.855490e-02 3.855490e-02 0.9993 -11.2585 7.3914)" fill="#D38200" width="2.6" height="0.5"/>
    <rect x="184.9" y="299.8" transform="matrix(0.9992 -3.886380e-02 3.886380e-02 0.9992 -11.5189 7.4624)" fill="#D38200" width="2.6" height="0.5"/>
    <rect x="185.1" y="304.2" transform="matrix(0.9992 -3.890242e-02 3.890242e-02 0.9992 -11.7018 7.48)" fill="#D38200" width="2.6" height="0.5"/>
    <rect x="185.2" y="308.6" transform="matrix(0.9993 -3.851629e-02 3.851629e-02 0.9993 -11.7568 7.4134)" fill="#D38200" width="2.6" height="0.5"/>
    <rect x="185.4" y="313" transform="matrix(0.9992 -3.890994e-02 3.890994e-02 0.9992 -12.0471 7.5015)" fill="#D38200" width="2.6" height="0.5"/>
    <rect x="185.6" y="317.4" transform="matrix(0.9993 -3.850885e-02 3.850885e-02 0.9993 -12.0942 7.4316)" fill="#D38200" width="2.6" height="0.5"/>
    <rect x="185.7" y="321.8" transform="matrix(0.9992 -3.890242e-02 3.890242e-02 0.9992 -12.3879 7.52)" fill="#D38200" width="2.6" height="0.5"/>
    <rect x="185.9" y="326.3" transform="matrix(0.9992 -3.890242e-02 3.890242e-02 0.9992 -12.5594 7.53)" fill="#D38200" width="2.6" height="0.5"/>
    <rect x="186.1" y="330.7" transform="matrix(0.9993 -3.852373e-02 3.852373e-02 0.9993 -12.6084 7.4642)" fill="#D38200" width="2.6" height="0.5"/>
    <rect x="186.3" y="335.1" transform="matrix(0.9992 -3.889490e-02 3.889490e-02 0.9992 -12.9 7.5485)" fill="#D38200" width="2.6" height="0.5"/>
    <rect x="186.4" y="339.5" transform="matrix(0.9992 -3.889640e-02 3.889640e-02 0.9992 -13.072 7.5588)" fill="#D38200" width="2.6" height="0.5"/>
    <rect x="186.6" y="343.9" transform="matrix(0.9993 -3.851778e-02 3.851778e-02 0.9993 -13.116 7.4926)" fill="#D38200" width="2.6" height="0.5"/>
    <rect x="186.8" y="348.3" transform="matrix(0.9992 -3.890392e-02 3.890392e-02 0.9992 -13.4176 7.5803)" fill="#D38200" width="2.6" height="0.5"/>
    <rect x="186.9" y="352.7" transform="matrix(0.9993 -3.852373e-02 3.852373e-02 0.9993 -13.4578 7.5135)" fill="#D38200" width="2.6" height="0.5"/>
    <rect x="187.1" y="357.1" transform="matrix(0.9992 -3.889490e-02 3.889490e-02 0.9992 -13.7575 7.5985)" fill="#D38200" width="2.6" height="0.5"/>
    <rect x="187.3" y="361.6" transform="matrix(0.9993 -3.851629e-02 3.851629e-02 0.9993 -13.7948 7.5318)" fill="#D38200" width="2.6" height="0.5"/>
    <rect x="187.5" y="366" transform="matrix(0.9992 -3.890242e-02 3.890242e-02 0.9992 -14.1032 7.62)" fill="#D38200" width="2.6" height="0.5"/>
    <rect x="187.6" y="370.4" transform="matrix(0.9992 -3.890242e-02 3.890242e-02 0.9992 -14.2748 7.63)" fill="#D38200" width="2.6" height="0.5"/>
    <rect x="187.8" y="374.8" transform="matrix(0.9993 -3.851629e-02 3.851629e-02 0.9993 -14.3044 7.5613)" fill="#D38200" width="2.6" height="0.5"/>
    <rect x="188" y="379.2" transform="matrix(0.9992 -3.890242e-02 3.890242e-02 0.9992 -14.6178 7.65)" fill="#D38200" width="2.6" height="0.5"/>
    <rect x="188.1" y="383.6" transform="matrix(0.9992 -3.886380e-02 3.886380e-02 0.9992 -14.7749 7.6521)" fill="#D38200" width="2.6" height="0.5"/>
    <rect x="188.3" y="388" transform="matrix(0.9993 -3.853118e-02 3.853118e-02 0.9993 -14.8195 7.594)" fill="#D38200" width="2.6" height="0.5"/>
    <rect x="188.5" y="392.4" transform="matrix(0.9992 -3.890242e-02 3.890242e-02 0.9992 -15.1325 7.68)" fill="#D38200" width="2.6" height="0.5"/>
    <rect x="183.1" y="271" transform="matrix(0.9993 -3.870252e-02 3.870252e-02 0.9993 -10.3632 7.3526)" fill="#D38200" width="3.3" height="0.8"/>
    <rect x="183.3" y="275.4" transform="matrix(0.9992 -3.873297e-02 3.873297e-02 0.9992 -10.5421 7.3684)" fill="#D38200" width="3.3" height="0.8"/>
    <rect x="183.4" y="279.8" transform="matrix(0.9992 -3.873297e-02 3.873297e-02 0.9992 -10.7129 7.3784)" fill="#D38200" width="3.3" height="0.8"/>
    <rect x="183.6" y="284.2" transform="matrix(0.9993 -3.870369e-02 3.870369e-02 0.9993 -10.8756 7.3826)" fill="#D38200" width="3.3" height="0.8"/>
    <rect x="183.8" y="288.6" transform="matrix(0.9993 -3.870369e-02 3.870369e-02 0.9993 -11.0463 7.3925)" fill="#D38200" width="3.3" height="0.8"/>
    <rect x="183.9" y="293" transform="matrix(0.9992 -3.873415e-02 3.873415e-02 0.9992 -11.2257 7.4084)" fill="#D38200" width="3.3" height="0.8"/>
    <rect x="184.1" y="297.4" transform="matrix(0.9992 -3.873415e-02 3.873415e-02 0.9992 -11.3966 7.4184)" fill="#D38200" width="3.3" height="0.8"/>
    <rect x="184.3" y="301.9" transform="matrix(0.9993 -3.870369e-02 3.870369e-02 0.9993 -11.5584 7.4223)" fill="#D38200" width="3.3" height="0.8"/>
    <rect x="184.5" y="306.3" transform="matrix(0.9993 -3.870252e-02 3.870252e-02 0.9993 -11.7288 7.432)" fill="#D38200" width="3.3" height="0.8"/>
    <rect x="184.6" y="310.7" transform="matrix(0.9992 -3.873297e-02 3.873297e-02 0.9992 -11.9087 7.448)" fill="#D38200" width="3.3" height="0.8"/>
    <rect x="184.8" y="315.1" transform="matrix(0.9992 -3.901298e-02 3.901298e-02 0.9992 -12.1658 7.5135)" fill="#D38200" width="3.3" height="0.8"/>
    <rect x="185" y="319.5" transform="matrix(0.9993 -3.870252e-02 3.870252e-02 0.9993 -12.2408 7.4618)" fill="#D38200" width="3.3" height="0.8"/>
    <rect x="185.1" y="323.9" transform="matrix(0.9992 -3.873297e-02 3.873297e-02 0.9992 -12.4212 7.4778)" fill="#D38200" width="3.3" height="0.8"/>
    <rect x="185.3" y="328.3" transform="matrix(0.9992 -3.873887e-02 3.873887e-02 0.9992 -12.5939 7.4889)" fill="#D38200" width="3.3" height="0.8"/>
    <rect x="185.5" y="332.8" transform="matrix(0.9993 -3.869780e-02 3.869780e-02 0.9993 -12.7514 7.4906)" fill="#D38200" width="3.3" height="0.8"/>
    <rect x="185.7" y="337.2" transform="matrix(0.9992 -3.900823e-02 3.900823e-02 0.9992 -13.0246 7.5628)" fill="#D38200" width="3.3" height="0.8"/>
    <rect x="185.8" y="341.6" transform="matrix(0.9992 -3.873415e-02 3.873415e-02 0.9992 -13.1049 7.5178)" fill="#D38200" width="3.3" height="0.8"/>
    <rect x="186" y="346" transform="matrix(0.9993 -3.870959e-02 3.870959e-02 0.9993 -13.2674 7.5228)" fill="#D38200" width="3.3" height="0.8"/>
    <rect x="186.2" y="350.4" transform="matrix(0.9993 -3.869780e-02 3.869780e-02 0.9993 -13.4341 7.5304)" fill="#D38200" width="3.3" height="0.8"/>
    <rect x="186.3" y="354.8" transform="matrix(0.9992 -3.873415e-02 3.873415e-02 0.9992 -13.6174 7.5476)" fill="#D38200" width="3.3" height="0.8"/>
    <rect x="186.5" y="359.2" transform="matrix(0.9992 -3.900704e-02 3.900704e-02 0.9992 -13.8843 7.6127)" fill="#D38200" width="3.3" height="0.8"/>
    <rect x="186.7" y="363.6" transform="matrix(0.9993 -3.870841e-02 3.870841e-02 0.9993 -13.9499 7.5623)" fill="#D38200" width="3.3" height="0.8"/>
    <rect x="186.8" y="368.1" transform="matrix(0.9992 -3.872707e-02 3.872707e-02 0.9992 -14.1273 7.576)" fill="#D38200" width="3.3" height="0.8"/>
    <rect x="187" y="372.5" transform="matrix(0.9992 -3.873297e-02 3.873297e-02 0.9992 -14.3003 7.5872)" fill="#D38200" width="3.3" height="0.8"/>
    <rect x="187.2" y="376.9" transform="matrix(0.9993 -3.870252e-02 3.870252e-02 0.9993 -14.4598 7.5909)" fill="#D38200" width="3.3" height="0.8"/>
    <rect x="187.4" y="381.3" transform="matrix(0.9992 -3.901298e-02 3.901298e-02 0.9992 -14.7467 7.6641)" fill="#D38200" width="3.3" height="0.8"/>
    <rect x="187.5" y="385.7" transform="matrix(0.9992 -3.873887e-02 3.873887e-02 0.9992 -14.815 7.6182)" fill="#D38200" width="3.3" height="0.8"/>
    <rect x="187.7" y="390.1" transform="matrix(0.9992 -3.873297e-02 3.873297e-02 0.9992 -14.9836 7.6269)" fill="#D38200" width="3.3" height="0.8"/>
    <rect x="187.9" y="394.5" transform="matrix(0.9993 -3.871431e-02 3.871431e-02 0.9993 -15.1472 7.633)" fill="#D38200" width="3.3" height="0.8"/>
    <polygon fill="#06273F" points="173.6 329.8 173.5 328.6 177.5 328.4 181.3 391.1 177.3 391.3 173.6 330.2 173.1 330.3 173.9 343.2 173.3 343.3 172.6 330.3 172.5 330.1 172.5 329.9 "/>
    <rect x="177.4" y="328.4" transform="matrix(-0.9982 6.055692e-02 -6.055692e-02 -0.9982 378.2826 708.0854)" fill="#117DBF" width="2" height="62.8"/>
    <rect x="174.4" y="325.8" transform="matrix(-0.9981 6.093959e-02 -6.093959e-02 -0.9981 370.4621 642.9897)" fill="#117DBF" width="2.1" height="2.7"/>
    <rect x="174.3" y="325.8" transform="matrix(-0.9982 6.044197e-02 -6.044197e-02 -0.9982 370.1331 641.2083)" fill="#06273F" width="2.1" height="0.8"/>
    <rect x="198.4" y="329.6" transform="matrix(-0.9948 -0.1019 0.1019 -0.9948 362.455 735.752)" fill="#09808C" width="3.3" height="58"/>
    <rect x="203" y="323.7" transform="matrix(0.1029 -0.9947 0.9947 0.1029 -141.1772 494.2565)" fill="#09808C" width="0.9" height="3.3"/>
    <polygon fill="#B21F08" points="204.5 321.1 203.2 321 202.1 321.6 201.8 324.8 205.1 325.1 205.4 322 "/>
    <polygon fill="#E03D1A" points="204.5 321.1 203.9 321.1 203.5 325 205.1 325.1 205.4 322 "/>
    <rect x="201.5" y="325.8" transform="matrix(0.9948 0.1019 -0.1019 0.9948 34.4586 -18.9968)" fill="#E7E1E2" width="3.3" height="4"/>
    <rect x="201.8" y="324.9" transform="matrix(0.9948 0.1019 -0.1019 0.9948 34.213 -18.9554)" fill="#06273F" width="1.7" height="0.9"/>
    <rect x="170.2" y="357.7" transform="matrix(0.1019 -0.9948 0.9948 0.1019 -177.7739 520.155)" fill="#06273F" width="58" height="1.7"/>
    <rect x="201.5" y="325.7" transform="matrix(0.9948 0.1019 -0.1019 0.9948 34.435 -18.9076)" fill="#B9ACAD" width="1.7" height="4"/>
    <polygon fill="#E21B25" points="197.8 409 178.1 409 173.1 352.7 202.8 352.7 "/>
    <polygon fill="#C40001" points="187.9 352.7 173.1 352.7 178.1 409 187.9 409 "/>
    <rect x="170.9" y="347.9" fill="#E21B25" width="34.1" height="4.8"/>
    <rect x="170.9" y="347.9" fill="#C40001" width="17.1" height="4.8"/>
    <rect x="465.5" y="167.7" fill="#F6F5F5" width="69.7" height="65.5"/>
    <rect x="481" y="163.8" fill="#0F375B" width="3.1" height="7.9"/>
    <rect x="488.1" y="163.8" fill="#0F375B" width="3.1" height="7.9"/>
    <rect x="495.2" y="163.8" fill="#0F375B" width="3.1" height="7.9"/>
    <rect x="502.3" y="163.8" fill="#0F375B" width="3.1" height="7.9"/>
    <rect x="509.4" y="163.8" fill="#0F375B" width="3.1" height="7.9"/>
    <rect x="516.5" y="163.8" fill="#0F375B" width="3.1" height="7.9"/>
    <rect x="505.8" y="185.4" fill="#E7E1E2" width="8" height="6.7"/>
    <rect x="515.4" y="185.4" fill="#E3C0C7" width="8" height="6.7"/>
    <rect x="524.9" y="185.4" fill="#E3C0C7" width="8" height="6.7"/>
    <rect x="467.7" y="194.7" fill="#E7E1E2" width="8" height="6.7"/>
    <rect x="477.2" y="194.7" fill="#E7E1E2" width="8" height="6.7"/>
    <rect x="486.8" y="194.7" fill="#E7E1E2" width="8" height="6.7"/>
    <rect x="496.3" y="194.7" fill="#E7E1E2" width="8" height="6.7"/>
    <rect x="505.8" y="194.7" fill="#E7E1E2" width="8" height="6.7"/>
    <rect x="515.4" y="194.7" fill="#E3C0C7" width="8" height="6.7"/>
    <rect x="524.9" y="194.7" fill="#E3C0C7" width="8" height="6.7"/>
    <rect x="467.7" y="204" fill="#E7E1E2" width="8" height="6.7"/>
    <rect x="477.2" y="204" fill="#E7E1E2" width="8" height="6.7"/>
    <rect x="486.8" y="204" fill="#E7E1E2" width="8" height="6.7"/>
    <path fill="#C40001" d="M486.3 203.5v7.7h9v-7.7H486.3zM494.3 210.1h-7v-5.7h7V210.1z"/>
    <rect x="496.3" y="204" fill="#E7E1E2" width="8" height="6.7"/>
    <rect x="505.8" y="204" fill="#E7E1E2" width="8" height="6.7"/>
    <rect x="515.4" y="204" fill="#E3C0C7" width="8" height="6.7"/>
    <rect x="524.9" y="204" fill="#E3C0C7" width="8" height="6.7"/>
    <rect x="467.7" y="213.2" fill="#E7E1E2" width="8" height="6.7"/>
    <rect x="477.2" y="213.2" fill="#E7E1E2" width="8" height="6.7"/>
    <rect x="486.8" y="213.2" fill="#E7E1E2" width="8" height="6.7"/>
    <rect x="496.3" y="213.2" fill="#E7E1E2" width="8" height="6.7"/>
    <rect x="505.8" y="213.2" fill="#E7E1E2" width="8" height="6.7"/>
    <rect x="515.4" y="213.2" fill="#E3C0C7" width="8" height="6.7"/>
    <rect x="524.9" y="213.2" fill="#E3C0C7" width="8" height="6.7"/>
    <rect x="467.7" y="222.5" fill="#E7E1E2" width="8" height="6.7"/>
    <rect x="477.2" y="222.5" fill="#E7E1E2" width="8" height="6.7"/>
    <rect x="486.8" y="222.5" fill="#E7E1E2" width="8" height="6.7"/>
    <rect x="496.3" y="222.5" fill="#E7E1E2" width="8" height="6.7"/>
    <rect x="505.8" y="222.5" fill="#E7E1E2" width="8" height="6.7"/>
    <rect x="515.4" y="222.5" fill="#E3C0C7" width="8" height="6.7"/>
    <rect x="524.9" y="222.5" fill="#E3C0C7" width="8" height="6.7"/>
    <rect x="470.4" y="174.7" fill="#E7E1E2" width="59.9" height="1.1"/>
    <rect x="470.4" y="177.2" fill="#E7E1E2" width="59.9" height="1.1"/>
    <rect x="470.4" y="179.7" fill="#E7E1E2" width="59.9" height="1.1"/>
    <rect x="507.8" y="274.6" transform="matrix(1 -6.376034e-03 6.376034e-03 1 -1.8668 3.3543)" fill="#F6F5F5" width="34.6" height="39.8"/>
    <rect x="511.6" y="278.4" transform="matrix(1 -6.373454e-03 6.373454e-03 1 -1.8496 3.3528)" fill="#C40001" width="27" height="27"/>
    <rect x="512.4" y="279.2" transform="matrix(1 -6.347165e-03 6.347165e-03 1 -1.8421 3.3389)" fill="#D3F4EF" width="25.4" height="25.4"/>
    <polygon fill="#0F375B" points="541.2 274.2 541.1 273.8 540.2 274.1 540.5 275.3 539.5 275.6 539.9 275.9 540.7 275.6 541.1 276.8 542 276.5 541.8 276.1 544.4 275.2 543.8 273.3 "/>
    <polygon fill="#0F375B" points="511.1 274.7 510.9 274.3 510 274.6 510.4 275.8 509.3 276.1 509.8 276.4 510.5 276.1 510.9 277.3 511.8 277 511.7 276.6 514.3 275.7 513.7 273.8 "/>
    <polygon fill="#4F1C00" points="512.5 304.7 512.4 292.5 517.2 286.6 523 291.9 523.1 295.7 526.3 295.6 526.3 294.5 528.6 293.3 530.3 294.5 530.3 298.7 533.1 298.5 533.1 292.7 536.1 288.6 537.8 288.4 537.9 304.5 "/>
    <path fill="#FFFFFF" d="M536.6 284c0-0.2 0.1-0.3 0.1-0.5 0-1.3-1.1-2.4-2.4-2.4 -0.9 0-1.8 0.5-2.2 1.3 -0.3-0.4-0.8-0.6-1.3-0.6 -0.7 0-1.3 0.4-1.6 1.1 -0.4-0.1-0.8-0.2-1.2-0.2 -1.4 0-2.5 0.6-2.8 1.4H536.6z"/>
    <path fill="#FFFFFF" d="M514.3 285.3c0-0.1 0-0.2 0-0.4 0-1 0.8-1.8 1.7-1.8 0.7 0 1.2 0.4 1.5 1 0.2-0.3 0.6-0.5 0.9-0.5 0.5 0 0.9 0.3 1.1 0.8 0.3-0.1 0.6-0.1 0.9-0.1 1 0 1.8 0.4 2 1H514.3z"/>
    <path fill="#FFFFFF" d="M530.2 286.4c-0.8 0-1.4 0.3-1.7 0.8 -0.3-0.2-0.7-0.4-1.1-0.4 -0.8 0-1.4 0.5-1.4 1h2.4 0.5 3.4C532.2 287 531.3 286.4 530.2 286.4z"/>
    <path fill="#E7E1E2" d="M425.8 117.5c0 1.9-1.5 3.4-3.4 3.4h-48.6c-1.9 0-3.4-1.5-3.4-3.4V92.8c0-1.9 1.5-3.4 3.4-3.4h48.6c1.9 0 3.4 1.5 3.4 3.4V117.5z"/>
    <path fill="#FFFFFF" d="M425.5 91.4c-0.5-1.2-1.7-2-3.1-2h-48.6c-1.4 0-2.5 0.8-3.1 2H425.5z"/>
    <path fill="#918687" d="M370.5 100.1v17.4c0 1.9 1.5 3.4 3.4 3.4h48.6c1.9 0 3.4-1.5 3.4-3.4v-17.4H370.5z"/>
    <path fill="#5B4D4F" d="M370.9 119c0.6 1.1 1.7 1.9 3 1.9h48.6c1.3 0 2.5-0.8 3-1.9H370.9z"/>
    <circle fill="#FFFFFF" cx="404.2" cy="107" r="11.1"/>
    <circle fill="#0A2A3D" cx="404.2" cy="107" r="9.4"/>
    <circle fill="#0F375B" cx="404.2" cy="107" r="7.7"/>
    <path fill="#D3F4EF" d="M404.2 99.3c-2.5 0-4.6 1.2-6 2.9 1.4 1.8 3.6 2.9 6 2.9 2.5 0 4.6-1.2 6-2.9C408.9 100.5 406.7 99.3 404.2 99.3z"/>
    <rect x="385.6" y="94.2" fill="#0F375B" width="6.1" height="3.4"/>
    <rect x="415.1" y="92.8" fill="#0A2A3D" width="8" height="6.2"/>
    <rect x="415.1" y="92.8" fill="#175B8E" width="8" height="1.4"/>
    <rect x="415.1" y="97.6" fill="#175B8E" width="8" height="1.4"/>
    <circle fill="#DF4100" cx="401.9" cy="93.8" r="2"/>
    <circle fill="#FF6501" cx="401.9" cy="93.8" r="1.8"/>
    <circle fill="#0A2A3D" cx="395.5" cy="93.8" r="0.9"/>
    <circle fill="#2279AF" cx="388.6" cy="95.9" r="0.9"/>
    <circle fill="#D3F4EF" cx="419.1" cy="95.9" r="1.4"/>
    <circle fill="#D6CCCD" cx="384" cy="102.3" r="1.5"/>
    <circle fill="#E7E1E2" cx="384" cy="102.3" r="1.3"/>
    <circle fill="#C5909A" cx="390.2" cy="107.5" r="1.6"/>
    <circle fill="#E7E1E2" cx="390.2" cy="107.5" r="1.3"/>
    <path opacity="0.3" fill="#FFFFFF" d="M372.9 120.8c0.3 0.1 0.6 0.2 1 0.2h5.3V89.4h-5.3c-0.3 0-0.7 0.1-1 0.2V120.8z"/>
    <rect x="382.8" y="87.7" fill="#E7E1E2" width="4.4" height="1.7"/>
    <rect x="382.6" y="87.1" fill="#B9ACAD" width="5" height="0.6"/>
    <path fill="#B9ACAD" d="M128.2 201.3c-13 0-24.3 5.1-29.2 12.4h29.2V201.3z"/>
    <path fill="#E7E1E2" d="M128.2 201.3v12.4h29.2C152.5 206.4 141.2 201.3 128.2 201.3z"/>
    <path fill="#E7E1E2" d="M149.9 194.8c-6.6 2.9-14 4.5-21.7 4.5 -29.8 0-54.1-24.3-54.1-54.1 0-21.2 12.3-39.6 30.1-48.4l-0.9-1.8c-18.5 9.2-31.2 28.2-31.2 50.3 0 31 25.1 56.1 56.1 56.1 8 0 15.6-1.7 22.5-4.7L149.9 194.8z"/>
    <rect x="125.8" y="85.7" transform="matrix(0.9063 -0.4226 0.4226 0.9063 -49.3672 67.7894)" fill="#E7E1E2" width="4.8" height="119"/>
    <rect x="125.9" y="86.2" transform="matrix(0.9063 -0.4225 0.4225 0.9063 -49.6732 67.3659)" fill="#B9ACAD" width="2.4" height="119"/>
    <circle fill="#E7E1E2" cx="128.2" cy="145.2" r="50.8"/>
    <path fill="#0F375B" d="M168.2 121.5c-0.1 0.3-0.3 0.6-0.6 0.8 0 0 0 0 0 0 0.5 0.5 1 1 1.5 1.6 0.1-0.2 0.2-0.3 0.4-0.4 -0.3-0.3-0.5-0.5-0.8-0.8 -0.1-0.2-0.1-0.3-0.1-0.5C168.5 122 168.3 121.8 168.2 121.5z"/>
    <polygon fill="#0F375B" points="170.9 126.3 170.9 126.3 170.9 126.3 "/>
    <path fill="#0F375B" d="M172.8 129.7L172.8 129.7c0 0 0 0.1 0 0.1C172.8 129.8 172.8 129.7 172.8 129.7z"/>
    <path fill="#0F375B" d="M154.4 125.5C154.4 125.5 154.3 125.5 154.4 125.5c-0.1 0.5-0.1 1-0.1 1.4 0.1 0.1 0.2 0.2 0.3 0.3 0.8 0.3 1.6 0.5 2.4 0.6 -0.3-0.8-0.6-1.6-1-2.3 -0.2-0.3 0-0.6 0.2-0.7 -0.8-0.7-1.5-1.5-2.4-2.2 -0.5-0.4 0.2-1.2 0.7-0.7 0 0 0.1 0.1 0.1 0.1 0.1-0.1 0.3-0.2 0.5-0.1 0 0 0 0 0 0 -0.4-0.4-0.9-0.8-1.4-1.2 -0.4 0.2-0.9 0.4-1.3 0.5 -0.2 0.1-0.4 0.1-0.5 0 0 0.4 0 0.8 0 1.2 0.4 0.5 0.8 0.9 1.2 1.4 0 0 0 0 0 0C154.5 123.1 155.5 124.9 154.4 125.5z"/>
    <path fill="#0F375B" d="M141.7 124.7c0.6 0.1 1.2 0.1 1.8 0.1 1.4-1.4 3.2-0.8 4.5 0.4 0.4-0.1 0.8-0.3 1.2-0.4 0-1.3-1.3-1.9-2.5-2.4 -0.6-0.3-0.8-0.9-0.6-1.5 0 0-0.1 0-0.1 0 -0.4 0.3-0.7 0.6-1 1 -0.1 0.1-0.1 0.2-0.2 0.2 -0.3 0.6-1.1 0.9-1.6 0.3 -0.4-0.4-0.8-0.7-1.3-1 -0.4 0.8-0.9 1.4-1.5 1.9 0.1 0.5 0.4 1 0.7 1.4C141.2 124.6 141.4 124.6 141.7 124.7z"/>
    <path fill="#0F375B" d="M143.6 120.1c0.1 0 0.1 0.1 0.2 0.1 0 0 0 0 0 0C143.7 120.2 143.6 120.1 143.6 120.1z"/>
    <path fill="#0F375B" d="M173.8 129.6c0.2 0.3 0.5 0.7 0.6 1 0-0.2 0-0.4 0-0.6 -0.1 0-0.2-0.1-0.3-0.2 -0.3-0.4-0.6-0.8-0.9-1.3 -0.1 0.1-0.3 0.1-0.5 0 -0.3-0.2-0.4-0.4-0.5-0.7 -0.2 0-0.3-0.1-0.5-0.1 0.4 0.7 0.7 1.3 1 2 0-0.1 0.1-0.2 0.2-0.2C173.1 129.2 173.6 129.2 173.8 129.6z"/>
    <path fill="#0F375B" d="M139.7 112.2c-0.1 0-0.1 0-0.2 0 0.3 0.2 0.6 0.6 0.8 0.9 0.5 0 1.1 0 1.6-0.1C141.4 112.5 140.6 112 139.7 112.2z"/>
    <path fill="#0F375B" d="M96.9 177.9C96.9 177.9 96.9 177.9 96.9 177.9 96.9 177.9 96.9 177.9 96.9 177.9 96.9 177.9 96.9 177.9 96.9 177.9z"/>
    <path fill="#0F375B" d="M178.1 153.8c-0.2 0.7-0.4 1.4-0.6 2.1 -0.1 0.2-0.2 0.5-0.2 0.7 0 0.9 0 1.7-0.2 2.5 0.5-1.9 1-3.9 1.3-5.9 0 0.1-0.1 0.2-0.1 0.3C178.2 153.7 178.1 153.8 178.1 153.8z"/>
    <path fill="#0F375B" d="M145.3 111.5C145.3 111.5 145.2 111.5 145.3 111.5c0 0.1 0 0.1 0.1 0.2C145.3 111.6 145.3 111.5 145.3 111.5 145.3 111.5 145.3 111.5 145.3 111.5z"/>
    <path fill="#0F375B" d="M95.2 178.3C95.2 178.3 95.2 178.3 95.2 178.3 95.2 178.3 95.2 178.3 95.2 178.3 95.2 178.3 95.2 178.3 95.2 178.3z"/>
    <path fill="#0F375B" d="M109.3 111.1C109.3 111.1 109.3 111.1 109.3 111.1c-0.1 0.1-0.1 0.2-0.1 0.3 0.1 0 0.1 0 0.2 0C109.3 111.3 109.3 111.2 109.3 111.1z"/>
    <path fill="#0F375B" d="M110.1 110.7C110.1 110.7 110.1 110.7 110.1 110.7c-0.2-0.1-0.3-0.2-0.3-0.5 0 0 0 0 0 0 -0.1 0.2-0.2 0.3-0.3 0.6C109.6 110.6 109.9 110.6 110.1 110.7z"/>
    <path fill="#0F375B" d="M166.6 177.9c-0.2 0.2-0.5 0.2-0.7 0 0 0 0 0 0 0 -0.2 0.4-0.7 0.3-0.9 0 0 0 0 0.1 0 0.1 0 0 0 0 0 0 -0.3 0.4-0.7 0.3-0.9 0 -0.6 0.7-1.2 1.5-1.7 2.3 0.1 0.3-0.1 0.6-0.4 0.6 0 0 0 0 0 0 -0.1 0.2-0.5 0.3-0.7 0.2 -0.4-0.2-0.8-0.3-1.3-0.4 0 0.2-0.1 0.4-0.1 0.6 -0.1 0.7-1.1 0.4-1-0.3 1.1-6.8 8.5-10.3 11.1-16.4 0.2-0.6 1.1-0.2 0.9 0.4 -0.3 0.9-0.5 1.8-0.8 2.7 0.8-0.8 1.4-1.9 1.9-3.1 0.2-0.5 1.1-0.5 1 0.1 0 0 0 0.1 0 0.1 0 0 0 0 0 0 0 0 0 0 0 0 0 0.4-0.1 0.8-0.2 1.1 0.3-0.4 1 0 0.9 0.5 -0.1 0.7-0.5 1.3-0.8 1.9 -0.3 1.3-1 2.6-1.7 3.8 2.5-3.9 4.5-8.2 5.8-12.8 -0.3 0.4-1.1 0.2-0.9-0.4 0.1-0.6 0.2-1.2 0.2-1.8 -0.1-0.1-0.1-0.2-0.1-0.3 0 0 0-0.1 0-0.1 0 0 0 0 0 0 -0.2-2.2 0.3-4.3 0-6.5 -0.1-0.7 1-0.7 1 0 0.1 0.5 0.1 1 0.1 1.5 0.3-2.9 0.2-5.8-0.1-8.6 -0.1 0.1-0.1 0.2-0.2 0.3 -0.3 0.4-1 0.3-1-0.3 0.1-1.6-0.4-3.1-0.7-4.6 -0.6 0.3-1.1 0.6-1.5 1.1 -0.2 0.7-0.5 1.5-0.8 2.2 0 0.1-0.1 0.3-0.1 0.4 -0.3 1.4-0.6 2.8-0.8 4.2 0 0 0 0.1 0 0.1 0 0.2 0 0.3-0.1 0.4 -0.1 0.8-0.2 1.7-0.3 2.5 0 0.3-0.1 0.6-0.1 0.9 -0.1 0.6-1.1 0.4-1-0.1 0 0 0-0.1 0-0.1h0c0-0.1 0-0.1 0-0.2 0-0.2 0.1-0.4 0.1-0.6 0-0.2 0-0.3 0-0.5 -0.1-0.1-0.1-0.1-0.2-0.2 -0.2-1.3-0.4-2.6-0.6-3.8 -0.1-0.1-0.2-0.2-0.2-0.3 -0.2-0.9-0.4-1.8-0.5-2.6 -0.4-0.7-0.8-1.4-1-2.2 -0.5 0.1-0.9-0.3-1.1-0.7 0 0 0 0-0.1-0.1 -0.5-0.9-1-1.8-1.3-2.8 -1.9 0.5-4.1 0.5-5.3-1 -0.3 0.1-0.6 0.3-1 0.4 -0.4 0.2-0.9-0.1-1.2-0.5 -0.5-0.8-1.2-1.6-1.8-2.3 -0.5 1-0.4 2.1 0.1 3.1 0.5 0.5 0.9 0.9 1.2 1.4 0.2 0.2 0.5 0.3 0.7 0.5 0.3-0.4 0.6-0.8 0.8-1.2 0.5-0.7 1.3-0.6 1.8 0 0.1 0.2 0.2 0.3 0.3 0.5 0.4 0.3 0.8 0.7 1.2 1.1 0.1 0.1 0.2 0.3 0.1 0.5 -0.2 0.7-0.5 1.3-0.9 1.8 -0.9 3-4.9 5.6-7.7 6 -0.5 0.1-0.9-0.2-1.1-0.5 -0.2-0.1-0.3-0.3-0.4-0.6 -0.5-1.8-1.2-3.6-1.7-5.4 -1.6-1.6-3.1-3.4-3.7-5.5 -0.6 0-1.1 0-1.7 0.1 0.4 0.7 0.7 1.4 1.1 2.1 2.5 2.8 4.2 6.5 5.2 10.2 1.1 1.3 2.8 2 4.4 1.2 0 0 0 0 0.1 0 0.1-0.2 0.2-0.4 0.2-0.5 0.6-1.2 2.4-0.1 1.8 1 -0.8 1.5-1.1 3.3-2.2 4.8 -0.8 1.1-1.7 1.8-2.8 2.1 0 0 0 0 0 0 -0.9 1.1-1.7 2.3-2.6 3.4 -0.2 0.3-0.5 0.6-0.7 0.9 0 1.9 0 3.9-0.5 5.8 -0.7 2.7-2.3 3.8-4 5.9 -1.7 2-2 5.1-4.6 6.3 -1.4 0.6-2.9 1.2-4.4 1.6 -0.6 0.4-1.2 0.7-1.8 1 -0.6 0.2-1.3-0.4-1.3-1 0-0.1 0-0.2 0-0.3 -1.5-1.3-1.8-4.3-2.2-6.1 -0.1-0.3-0.1-0.6-0.2-0.9 -0.8-1.7-1.4-4.1-0.1-5.2 0-0.1 0.1-0.2 0.2-0.3 0.1-1.4 0.3-2.8 0.2-4.2 0 0 0-0.1 0-0.1 0 0 0 0 0-0.1 0 0 0-0.1-0.1-0.1 -1.4-1.3-3.4-2.4-3.4-4.2 0-0.8 0.3-1.5 0.7-2.2 0 0 0 0 0 0 -0.1-0.6-0.1-1.3-0.4-1.8 -0.4-0.7-1.6 0.1-2.1 0.4 -0.6 0.3-1.3 0-1.5-0.6 -0.1-0.5-0.3-1-0.4-1.4 -2.8 0.3-6-0.3-8.3 1.2 -0.1 0.3-0.1 0.5-0.2 0.8 -0.1 0.7-0.9 1.4-1.6 0.9 -2.9-2.1-4.1-5.2-5.9-8.2 -0.3-0.5-0.1-1.1 0.4-1.4 0.3-0.2 0.5-0.3 0.8-0.4 -0.4-3.8-0.5-7.8 3.1-9.7 0.1-0.1 0.2-0.3 0.3-0.4 0.1-0.5 0.2-0.9 0.3-1.3 0.1-0.3 0.2-0.6 0.2-0.9 0.1-0.2 0.2-0.3 0.4-0.4 0.2-0.3 0.3-0.5 0.6-0.7 0.8-0.5 1.8-0.7 2.8-0.7 0.7-0.3 1.5-0.6 2.3-0.8 2.8-1.7 6.3-2.4 9.4-1.3 1.1 0.4 0.8 1.9-0.1 2 0 0.1 0 0.3 0 0.4 1.8 1.4 4.1 1.7 6.3 2 0.1 0 0.3 0.1 0.4 0.1 0.5-0.4 0.9-0.9 1.5-1.2 1.2-0.5 2.4-0.6 3.7-0.8 0.9-0.1 1.7 0.7 1.2 1.5 0 0.1-0.1 0.1-0.1 0.2 1-0.3 2-0.5 3-0.7 1-0.8 1.6-1.9 1.9-3.2 -1.7-0.2-3.6 0.4-5.1-0.7 -0.9-0.7-1.8-1.5-2.4-2.5 -0.4 0.4-0.9 0.7-1.4 1 0.2 0.3 0.4 0.6 0.6 0.9 0.8 1.1-1 2.1-1.8 1 -1.5-2.3-4.1-3.9-5.8-6.1 -0.2 0.1-0.4 0.1-0.6 0.1 0.5 0.6 1.2 1.1 1.8 1.8 0.1 0.2 0.3 0.3 0.4 0.5 0.5 0 0.9 0.2 1.1 0.6 0.1 0.3 0.1 0.6-0.2 0.7 -0.1 0.1-0.2 0.1-0.4 0.1 0 0.4 0 0.8-0.1 1.2 0 0.2-0.1 0.3-0.2 0.3 0 0.2-0.3 0.4-0.5 0.4 -0.6 0.1-1.3-0.2-1.8-0.6 -0.4-0.4 0-1 0.5-0.9 0.1 0 0.2 0.1 0.4 0.1 -1.2-1.4-2.7-2.6-4.2-3.7 -0.8 0.4-1.7 0.6-2.7 0.7 -0.1 0-0.1 0-0.2 0.1 -0.7 1-1.5 1.9-2.8 1.8 -0.1 0.3-0.3 0.5-0.4 0.8 0 0 0 0 0 0 0 0.1 0 0.2 0 0.2 0 0.1 0 0.3 0 0.3 0.1 0.3 0 0.7-0.3 0.8 -1.4 0.3-2.8 0.8-3.8 1.8 -0.3 0.2-0.8 0.2-0.9-0.2 -0.1-0.4-0.3-0.6-0.5-0.9 -0.1 0-0.2 0-0.2 0 -1.6-0.7-1.4-2.9-0.5-4.1 1.3-1.5 3.2-1 4.9-0.8 0 0 0.1-0.1 0.1-0.1 0-0.1 0-0.2 0-0.4 -0.2-0.7-0.7-1.3-1.4-1.6 -0.6-0.2-0.4-1.2 0.3-1 0 0 0.1 0 0.1 0 1.1 0.1 2.3-0.3 3.4-0.8 0.2-0.3 0.4-0.7 0.5-1 0.2-0.4 0.9-0.4 1.2-0.5 0.8-0.3 1.6-0.5 2.4-0.7 0.2-0.1 0.3-0.3 0.4-0.4 0-0.3 0-0.6 0-0.8 0-0.3 0-0.6 0.3-0.8 0.2-0.1 0.4-0.1 0.5 0 0 0 0.1 0 0.1-0.1 0.3-0.2 0.8-0.2 0.9 0.2 0.1 0.4 0.1 0.8 0.1 1.2 0.9 0 1.9-0.1 2.8-0.1 0.2 0 0.3 0.1 0.4 0.2 0 0 0 0 0.1 0 0.6 0 1.2 0 1.8 0 0.2-0.4 0.5-0.9 0.7-1.4 0.1-0.3 0.3-0.5 0.6-0.7 0.3-0.2 0.8-0.3 1.1-0.1 0.1 0.1 0.2 0.1 0.3 0.2 0 0 0-0.1 0-0.1 0-0.4 0.3-0.9 0.8-1 0.7-0.1 1.4-0.2 2-0.3 -0.9-1-2.3-0.9-3.7-0.5 -0.5 0.1-0.8-0.5-0.5-0.9 0.7-0.9 0.9-1.3 0.9-2.1 -0.9 0-1.2 0.1-1.7 1 -0.3 0.6-0.9 1.1-1.5 1.4 0.2 0.1 0.4 0.3 0.6 0.5 0.2 0.1 0.2 0.4 0.1 0.6 -1.1 2.1-1.4 2.6-3.8 2.7 -0.2 0-0.4-0.2-0.5-0.4 -0.2-0.6-0.4-1.1-0.7-1.6 -0.7 0.5-1.5 0.7-2.4 0.4 -0.8-0.3-1.3-1-1.6-1.8 -0.1-0.4 0.1-0.6 0.4-0.6 0 0 0 0 0 0 0.6-0.2 1.2-0.4 1.8-0.7 0.1-0.2 0.2-0.4 0.4-0.6 0.1-0.2 0.3-0.4 0.4-0.6 0.1-0.1 0.1-0.1 0.1-0.1 0-0.2 0.2-0.5 0.4-0.5 0.9-0.1 1.8-0.5 2.7-0.7 0.8-0.6 1.5-1.1 2.3-1.6 0 0 0-0.1 0-0.1 0-0.2 0.2-0.3 0.3-0.3 0.1-0.2 0.2-0.5 0.3-0.7 0.1-0.2 0.5-0.3 0.7-0.2 0.3 0.1 0.6 0.2 0.9 0.1 0.3 0 0.5 0.1 0.6 0.4 0.1 0.2 0.1 0.3 0.2 0.5 2.5-1.3 5.4 0.1 7.6 1.7 0.4 0.3 0.3 0.9-0.3 1 -0.6 0-1.2 0.1-1.7 0.2 0.1 0.1 0.1 0.3 0.2 0.4 0.1 0 0.2 0.1 0.4 0.1 0-0.1 0.1-0.2 0.1-0.2 0 0 0 0 0 0 0.2-0.2 0.5-0.2 0.7 0 0 0 0 0 0 0 0.1 0.1 0.1 0.2 0.1 0.3 0.1-0.1 0.3-0.2 0.5-0.2 0.4-0.5 0.8-1 1.3-1.1 0.1 0 0.2 0 0.3 0 -0.1-0.3-0.2-0.7-0.3-1 -0.1-0.3 0.1-0.5 0.3-0.6 0.1-0.1 0.1-0.1 0.3-0.1 0.8-0.2 1.7-0.3 2.5-0.4 -0.2-0.1-0.4-0.3-0.6-0.4 -0.1-0.1-0.2-0.1-0.2-0.2 0 0 0 0 0 0 0 0-0.1 0-0.1-0.1 0 0-0.1-0.1-0.1-0.1 -0.1 0-0.1-0.1-0.2-0.1 -0.3-0.3-0.1-0.9 0.3-0.9 0.2-0.5 0.4-1 0.7-1.5 0.3-0.5 1.1-0.2 0.9 0.4 0 0 0 0 0 0 0.5-0.2 1-0.3 1.5-0.3 0.7-0.1 0.7 1 0 1 -0.4 0-0.8 0.1-1.2 0.3 -0.1 0.1-0.2 0.1-0.3 0.2 0.5 0.5 0.9 1 1.4 1.5 0 0 0 0.1 0.1 0.1 0 0 0 0 0 0 0.2-0.1 0.4 0 0.6 0.2 0.1 0 0.1 0 0.1 0 0.1-0.3 0.3-0.5 0.6-0.4 0.3 0.1 0.5 0.1 0.8 0.1 -0.1-0.5-0.1-0.9-0.3-1.4 -0.1-0.3 0.2-0.7 0.5-0.7 0.4 0 0.5 0.2 0.8 0.4 0.1 0.1 0.3 0.2 0.4 0.3 0 0 0.2 0.2 0.1 0.1 0 0 0.1 0 0.1 0.1 0 0 0 0 0 0 0.1 0.1 0.1 0.2 0.1 0.2 0.1 0 0.2 0 0.3 0 0.1-0.2 0.3-0.4 0.5-0.4 -0.2-0.3-0.4-0.6-0.6-0.9 0 0 0 0-0.1 0 -0.5-0.2-0.2-1 0.3-1 0.2 0 0.3 0.1 0.5 0.2 0.2 0.1 0.4 0.2 0.6 0.3 0.1-0.3 0.7-0.5 0.9-0.1 0 0.1 0.1 0.1 0.2 0.2 0.2 0 0.3 0.1 0.4 0.2 0.3 0.5 0.8 0.9 1.2 1.3 0.5 0.5-0.2 1.2-0.7 0.7 -0.2 0-0.3 0-0.5-0.1 -0.2-0.2-0.3-0.3-0.5-0.5 0 0-0.1 0-0.1 0 0 0 0 0 0 0 0.1 0.1 0.3 0.2 0.4 0.4 0.2 0.3 0.1 0.6-0.1 0.8 0 0 0 0 0 0 0.7 0.1 0.7 1.1 0 1 -0.3 0-0.6-0.1-0.8-0.2 0 0.2 0 0.4 0 0.7 0 0.6-0.9 0.7-1 0.1 -0.2-0.8-0.8-1.4-1.2-2.2 0 0 0 0 0 0 -0.1 0.1-0.3 0.1-0.4 0 0 0 0 0 0 0 0 0.3 0.1 0.6 0.3 0.9 0 0.1 0 0.1 0 0.2 0.2 0.3 0.1 0.9-0.4 0.8 -0.5 0-0.8-0.2-1.1-0.6 -0.3 0-0.6 0-0.9-0.1 0 0 0 0 0 0 0 0.2-0.1 0.3-0.4 0.4 0 0-0.1 0-0.1 0 0 0 0 0 0 0 0 0 0 0 0 0 0 0 0 0 0 0 0 0 0 0 0 0 -0.3 0-0.6 0-0.8-0.1 -0.1-0.1-0.2-0.2-0.3-0.3 0 0-0.1 0-0.1 0.1 0 0.2-0.2 0.5-0.4 0.5 -1 0.1-2 0.4-3 0.6 0 0.2 0.1 0.3 0.1 0.5 0.3 0.1 0.5 0.2 0.7 0.3 0.5 0.2 0.9 0.7 0.7 1.3 0 0 0 0 0 0.1 4.2-1.6 9.3 2.6 13.1 6.1 -0.1-0.5-0.2-0.9-0.3-1.4 -0.7-1-1.5-1.8-2.7-2.3 -0.2-0.1-0.3-0.3-0.3-0.5 -0.7-0.4-1.4-0.5-2.2-0.7 -0.6-0.2-0.4-1.2 0.3-1 0.1 0 0.2 0.1 0.3 0.1 0-0.4 0.3-0.8 0.7-0.5 0.2 0.1 0.4 0.3 0.6 0.4 0.8 0.6 1.7 1.1 2.5 1.8 0.1-0.1 0.2-0.2 0.4-0.2 0.4 0 0.9 0 1.3 0.1 0.3-0.2 0.5-0.2 0.9-0.1 0.5 0.1 0.9 0.2 1.3 0.5 0.2 0.2 0.4 0.4 0.5 0.6 0.7 0.4 1.4 1 2 1.5 0.4 0.4 0 1-0.5 0.9 -0.1 0-0.2 0-0.3-0.1 0 0 0 0 0 0 0.1 0.8 0.5 1.7 0.8 2.4 0.1 0.2 0.1 0.3 0.2 0.5 0.1 0 0.3 0.1 0.4 0.2 0.2 0.3 0.5 0.7 0.7 1 0.1 0.1 0.1 0.2 0 0.3 0 0 0 0.1 0 0.1 0.1-0.6-0.1-1.2-0.7-1.5 -0.5-0.4 0-1.3 0.5-0.9 0.1 0.1 0.2 0.2 0.3 0.3 0.2 0 0.3 0.1 0.4 0.3 0.6 1.1 1.2 2.1 1.8 3.1 1.7 0.7 2.5 2.1 3.2 3.7 0 0 0.1 0.1 0.1 0.1 0.2 0.1 0.2 0.3 0.1 0.5 0.2 0.5 0.4 0.9 0.7 1.4 0-0.7-0.1-1.4-0.2-2.2 -0.1-0.6 0.8-0.9 1-0.3 0.2 0.9 0.4 1.8 0.5 2.7 0.1 0.1 0.2 0.2 0.2 0.3 0 0 0 0.1 0 0.1 0 0 0 0 0 0 0 0 0 0 0 0 0 0.1 0 0.3 0.1 0.4 0.2 0.1 0.4 0.2 0.4 0.4 0.2 0 0.4 0.2 0.5 0.4 0.2 0.6 0.3 1.1 0.4 1.7 0.1 0.1 0.2 0.2 0.2 0.4 0 0.5 0.1 1 0.1 1.5 0.2 0 0.4 0.1 0.5 0.4 0.4 1.7 0.5 3.2 0.5 4.9 0 0.1 0 0.2-0.1 0.3 0.1 0.6 0.1 1.3 0.2 1.9 0 0.1 0 0.2-0.1 0.3 0.1 0.4 0.1 0.9 0.1 1.3 0 0.3 0 0.5 0.1 0.8 0 0 0 0 0 0.1 0.1 0.4 0.2 0.7 0.3 1.1 0.1 0.3-0.1 0.5-0.3 0.6 0.2 2.3 0.2 4.7 0 7.1 0.1 0.1 0.2 0.2 0.2 0.4 0.3-2.3 0.5-4.7 0.5-7 0-28-22.7-50.8-50.8-50.8 -28 0-50.8 22.7-50.8 50.8 0 28 22.7 50.8 50.8 50.8 16.2 0 30.7-7.6 40-19.5C167.7 177 167.1 177.4 166.6 177.9zM174.9 163.2c-0.3 0.6-1.2 0.1-0.9-0.5 0.2-0.3 0.1-0.6 0.1-0.9 -0.2-0.6 0.8-0.9 1-0.3C175.3 162 175.2 162.7 174.9 163.2zM171.9 149.4c0-0.3 0-0.7 0.1-1 0.1-0.4 0.6-0.5 0.9-0.2 0.1 0.1 0.2 0.3 0.2 0.4 0.1 0.1 0.1 0.2 0.1 0.3 0 0.8 0.2 1.6 0.1 2.4 0 0.3-0.2 0.8-0.6 0.7 -0.4 0-0.6-0.3-0.7-0.6 -0.1-0.2-0.1-0.3 0-0.5 0-0.1-0.1-0.2-0.1-0.3C171.9 150.2 171.9 149.8 171.9 149.4zM167.4 163.2c0.5-0.2 0.8-0.7 1.1-1.1 0.3-0.5 0.6-0.9 0.9-1.4 0.2-0.3 0.6-0.6 0.9-0.8 0.4-0.7 0.8-1.4 1.6-1.6 0.2-0.1 0.4-0.1 0.6-0.2 0.3-0.1 0.2-0.2 0.4-0.5 0.2-0.3 0.5-0.6 0.7-0.9 0.2-0.2 0.4-0.2 0.6-0.1 0.1-0.2 0.3-0.3 0.4-0.5 0.4-0.6 1.3 0 0.9 0.5 -0.1 0.2-0.3 0.5-0.5 0.7 0 0.5 0 1.1-0.1 1.6 -0.1 0.4-0.2 0.5-0.6 0.8 -0.5 0.4-1 0.7-1.6 1 0.3 0.4 0.6 0.9 0 1.3 -0.3 0.2-0.5 0.1-0.6 0 -0.2 0.4-0.5 0.9-0.8 1.2 -0.3 0.4-0.9 0.1-0.9-0.4 0-0.3-0.1-0.5-0.2-0.8 -0.2 0.1-0.4 0.2-0.6 0.2 -0.1 0-0.1 0-0.2 0 0 0-0.1 0.1-0.1 0.1 -0.5 0.7-1 1.5-1.8 1.8C167.1 164.5 166.8 163.4 167.4 163.2zM126.3 125.4c0.2-0.3 0.6-0.4 0.9-0.3 0.3 0 0.6 0.4 0.5 0.7 0 0.2 0 0.4-0.1 0.6 0 0.4-0.4 0.7-0.8 0.4 -0.1 0-0.1-0.1-0.2-0.1 -0.3 0-0.6-0.4-0.5-0.7 0-0.1 0-0.2 0-0.2 0 0 0 0 0 0C126.2 125.7 126.3 125.5 126.3 125.4zM122.5 125.6c0 0 0.1 0 0.1 0 0.7 0 0.7 1 0 1 0 0-0.1 0-0.1 0C121.8 126.6 121.8 125.6 122.5 125.6zM109.7 118.2c-0.4-0.2-0.7-0.6-0.7-1 0-0.3 0.3-0.5 0.5-0.5 0.3 0 0.5 0.2 0.5 0.5 0 0 0.2 0.1 0.2 0.1C110.8 117.6 110.2 118.5 109.7 118.2zM113.8 118.8c-0.5 0-0.9-0.1-1.3-0.4 -0.2-0.2-0.2-0.6 0-0.7 0.2-0.2 0.5-0.2 0.7 0 0.1 0 0.4 0.1 0.6 0.1C114.5 117.8 114.5 118.8 113.8 118.8zM115.3 119.1c-0.6 0.2-0.9-0.8-0.3-1 0.1 0 0.1-0.1 0.2-0.1 0-0.4 0-0.8 0.2-1.1 0.2-0.4 0.7-0.6 1.1-0.7 0 0 0.1 0 0.1 0 0.2 0 0.3 0 0.5 0.1 0 0 0 0 0 0 0 0 0 0 0 0 0.3 0.3 0.7 0.7 0.7 1.2 0 0.2-0.1 0.4-0.3 0.4C116.8 118.3 116.1 118.8 115.3 119.1zM117.7 114.3C117.7 114.3 117.7 114.3 117.7 114.3c0.3-0.1 0.7-0.3 1-0.4 0 0 0-0.1 0-0.1 0.1-0.3 0.6-0.3 0.8-0.1 -0.1-0.1 0.1 0 0.1 0.1 0.1 0 0.2 0.1 0.3 0.1 0.1 0 0.1 0.1 0.2 0.1 0 0 0.2 0.1 0.1 0 0.4 0 0.7 0.4 0.4 0.8 -0.1 0.2-0.3 0.5-0.3 0.7 0 0 0 0.1 0 0.1 0 0 0 0 0 0 0 0.1 0 0.1 0 0.2 0 0 0 0 0 0 0 0 0.1 0 0.1 0.1 0.5 0.6 0.9 1.3 1.5 1.8 0.2 0.2 0.2 0.4 0.1 0.6 -0.1 0.3-0.3 0.5-0.5 0.8 -0.2 0.4-0.7 0.3-0.9 0 0 0-0.1-0.1-0.1-0.1 -0.3 0-0.5 0-0.8 0 -0.1 0.2-0.3 0.3-0.4 0.4 -0.3 0.2-0.7 0.2-0.9-0.1 -0.1-0.1-0.1-0.3-0.1-0.4 -0.3 0-0.5-0.1-0.6-0.4 -0.1-0.2 0.1-0.6 0.4-0.6 0 0 0.1 0 0.1 0 0 0 0.1 0 0.1-0.1 0.1-0.1 0.3-0.2 0.4-0.2 0.2-0.1 0.3-0.2 0.5-0.3 0-0.3 0-0.6 0-0.9 -0.8-0.2-1.3-0.8-2-1.2C116.6 114.8 117.1 113.9 117.7 114.3zM78.1 148.4c-0.1-1.1-0.2-2.2-0.2-3.3 0-0.7 1-0.7 1 0 0 1 0.1 2 0.2 3C79.2 148.8 78.2 149.1 78.1 148.4zM105.9 190c-8.1-3-13.9-10.4-17.6-18.1 -0.2-0.3-0.4-0.5-0.5-0.8 -1.2-1.4-2.5-2.7-4-3.8 -0.2-0.2-0.2-0.3-0.1-0.5 -0.8-1.9-1.7-3.7-2.2-5.6 -0.3-0.4-0.5-0.8-0.8-1.2 -0.1-0.1-0.3-0.2-0.3-0.4 0 0 0 0 0 0 0 0 0-0.1 0-0.1 0-1.7-0.2-3.3 0-5 0-0.3-0.1-0.5-0.1-0.8 -0.1-0.1-0.3-0.2-0.3-0.4 0-0.1 0-0.1 0-0.2 -0.4-0.7-0.8-1.5-1.1-2.3 -0.3-0.6 0.8-0.9 1-0.3 0 0.1 0.1 0.1 0.1 0.2 0-0.8 0.1-1.6 0.2-2.5 0-0.7 1.1-0.7 1 0 0 0.3 0 0.7-0.1 1 0-0.1 0.1-0.3 0.1-0.4 0-0.6 0.8-0.7 1-0.2 0.3 0.2 0.4 0.5 0.7 0.8 0 0 0 0 0 0 0-0.1 0.1-0.2 0.1-0.4 0.1-0.2 0.4-0.3 0.6-0.2 0.2 0.1 0.5 0.1 0.8 0.1 0.3-0.1 0.7 0.1 0.7 0.5 0 0.6 0 1.2-0.1 1.8 0.1 0 0.2 0 0.2 0.1 0.6 0.5 0.9 1.2 1.2 1.9 0 0 0 0 0 0 0-0.1 0.1-0.2 0.1-0.3 0.1-0.2 0.3-0.4 0.5-0.4 0 0 0.1 0 0.1 0 0.2 0 0.4 0.1 0.4 0.3 0.2 0.4 0.3 0.8 0.4 1.1 0.8 0.6 1.4 1.4 2 2.2 0.1 0.1 0.1 0.4 0 0.5 -0.1 0.1-0.1 0.3-0.2 0.4 0.3-0.2 0.7 0 0.7 0.4 0 0.3 0 0.7 0 1 0-0.1 0.1-0.2 0.1-0.4 0.1-0.4 0.6-0.5 0.9-0.2 0.2 0.2 0.4 0.3 0.6 0.4 0 0 0 0 0.1 0 2.3-0.1 4.7 0.4 5.5 2.6 2 1.8 0.9 6.2 1.1 9 0.3 0.8 0.5 1.7 0.2 2.5 0.3 0.3 0.3 0.7 0.4 1 0 0.3-0.2 0.5-0.5 0.5 -0.3 0-0.5-0.1-0.7-0.3 0 0-0.1 0.1-0.1 0.1 -0.1 0.1-0.9 0.4-1 0.6 -0.2 0.9 0.1 1.5 0.5 2.2 0.5 0.9 1 1.8 1.2 2.8 0 0 0 0.1 0 0.1 0 0 0 0.1 0 0.1 0 0.2-0.1 0.4-0.3 0.5 -0.1 0.1-0.3 0.1-0.4 0.1 0.4 0.6 0.9 1.2 1.2 1.9 0.2 0.4-0.1 0.8-0.5 0.8 0.5 0.6 0.9 1.2 1.4 1.8 1 0.9 2.2 1.8 3 2.8 0 0 0.1 0.1 0.1 0.1 0.9 0.5 1.9 1 2.9 1.3C106.8 189.3 106.5 190.3 105.9 190zM80.2 142.5c-0.2 0.1-0.6 0.1-0.7-0.2 -0.2-0.3-0.4-0.9 0-1.2 0.1-0.1 0.3-0.2 0.5-0.1 0.2 0.1 0.3 0.2 0.4 0.4 0.1 0.2 0.1 0.3 0 0.5C80.5 142 80.5 142.3 80.2 142.5zM81.7 143.9c0 0.7-1 0.7-1 0 0-0.3 0-0.5-0.1-0.8 -0.1-0.1-0.2-0.3-0.1-0.5 0.1-0.2 0.1-0.4 0.3-0.5 0.1-0.1 0.4-0.1 0.5 0 0.2 0.2 0.2 0.3 0.3 0.5 0.1 0.2 0.1 0.4 0 0.5C81.7 143.4 81.7 143.6 81.7 143.9zM81.8 143.4c0 0 0-0.1 0-0.1 0-0.7 1-0.7 1 0 0 0 0 0.1 0 0.1C82.9 144.1 81.8 144.1 81.8 143.4zM107.6 116.7c-0.4-0.3-1-0.4-1.5-0.6 -0.3-0.1-0.6-0.3-0.8-0.4 -0.5 0.1-1.1 0.1-1.6-0.1 -0.4-0.1-0.6-0.8-0.1-0.9 0.1 0 0.1-0.1 0.2-0.1 0-0.3-0.1-0.5-0.1-0.8 -0.1 0-0.2 0-0.3 0 0 0 0 0.1 0 0.1 -0.1 0.4-0.6 0.5-0.9 0.2 0 0 0 0-0.1 0 -0.1-0.1-0.2-0.2-0.2-0.3 -0.1-0.1-0.1-0.3-0.2-0.4 0 0 0 0 0 0 -0.4-0.4-1.6 0.5-2 0.7 -0.6 0.3-1.2 0.6-1.9 0.7 -0.2 0-0.3-0.1-0.4-0.2 -1 1.2-2.4 2.1-3.2 3.5 -0.1 0.3-0.4 0.3-0.6 0.2 -0.2 0.3-0.6 0.4-0.8 0.1 -0.4 0.5-0.7 1-1.1 1.4 0 0 0 0 0 0 0.2 0.1 0.3 0.2 0.4 0.4 0.1 0.6 0.1 1.2 0.1 1.8 0 0.6-0.8 0.7-1 0.2 -0.3 0-0.5-0.1-0.8-0.1 -0.4 0-0.7-0.4-0.4-0.8 0.1-0.1 0.2-0.3 0.2-0.5 -0.1-0.2-0.1-0.3 0.1-0.5 0 0 0 0 0 0 -0.5 0.3-0.9 0.6-1.3 1.1 -0.1 1.2-0.8 2.1-1.6 3 0.3 0.1 0.5 0.4 0.4 0.7 -0.8 2.7-2.8 4.4-4.4 6.6 0 0.1 0 0.3 0 0.4 0 0.3 0 0.6-0.1 0.9 0 0.4-0.3 0.5-0.6 0.5 0.1 2.4-0.5 5-1.8 6.9 -0.4 0.5-1.3 0-0.9-0.5 1.2-1.7 1.8-4 1.7-6.2 -0.3 0.3-0.6 0.7-0.9 1.1 0 0.1-0.1 0.3-0.1 0.4 0 0 0 0.1 0 0.1 0.1 0.1 0.2 0.3 0.2 0.5 0 0.2-0.1 0.3-0.1 0.5 0 0.1 0 0.2-0.1 0.3 -0.1 0.5-0.2 0.9-0.4 1.4 0 0.1-0.1 0.1-0.1 0.2 -0.1 0.4-0.2 0.8-0.4 1.2 -0.1 0.4-0.2 0.8-0.3 1.1 -0.1 0.4-0.5 0.4-0.8 0.3 -0.1 1-0.1 2-0.1 3 0-0.6 1-0.6 1 0 0 0.1 0 0.2 0 0.3 0.1 0.3 0.1 0.6-0.2 0.7 -0.2 0.1-0.6 0.1-0.7-0.2 -0.1-0.3-0.2-0.5-0.2-0.8 0 0 0 0.1 0 0.1 0 0.7-1.1 0.7-1 0 0.1-2.3 0.2-4.6 0.6-6.8 0-0.1 0-0.2 0-0.3 1-4.7 2-9.3 4.5-13.4 0 0 0 0 0.1-0.1 0 0 0 0 0 0 0 0 0-0.1 0-0.1 0 0 0-0.1 0.1-0.2 0-0.1 0-0.2 0-0.3 0.2-0.3 0.4-0.7 0.5-1 0.1-0.2 0.2-0.3 0.2-0.5 0-0.2 0-0.3 0.1-0.5 0.3-0.2 0.7-0.3 0.9 0 0.2 0.3 0 0.6-0.1 0.9 -0.1 0.1-0.1 0.3-0.2 0.4 0 0 0 0.1 0 0.1 -0.1 0.2-0.2 0.4-0.3 0.6 0.4 0 0.6 0.5 0.4 0.8 -0.6 1-1.1 1.8-1.9 2.6 -0.1 0.1-0.2 0.1-0.3 0.2 0 0 0 0 0 0 -1 2.1-1.7 4.3-2.2 6.6 0.5-1.2 1.1-2.4 1.7-3.6 0-0.1 0.1-0.2 0.2-0.2 0.1-0.1 0.2-0.3 0.3-0.4 0.4-0.4 0.6-0.8 0.9-1.2 0-0.1 0-0.3 0-0.4 -0.1-0.1-0.1-0.3-0.1-0.4 0.1-0.3 0.2-0.5 0.3-0.7 0.2-0.4 0.6-0.3 0.8 0 0 0 0 0 0.1-0.1 0.1-0.1 0.1-0.1 0.2-0.1 0.3-0.8 0.7-1.7 1.2-2.4 0.3-0.5 1-0.2 1 0.3 0.5-0.6 1-1.3 1.2-2 0 0 0 0 0-0.1 0 0 0 0 0 0 -0.1 0.1-0.4 0.1-0.5 0 0 0 0 0 0 0 -0.2-0.1-0.3-0.4-0.2-0.6 0.1-0.1 0.1-0.3 0.2-0.4 0.1-0.2 0.3-0.3 0.5-0.2 0.1-0.2 0.3-0.3 0.4-0.4 0.2-0.2 0.6-0.2 0.8 0 0.6-0.5 1.3-0.9 2.1-1 0.4-0.6 0.9-1.2 1.3-1.7 0-0.1-0.1-0.1-0.1-0.2 -0.1-0.3-0.2-0.5-0.3-0.8 -0.1-0.3 0.1-0.6 0.4-0.6 0 0 0 0 0.1 0 0-0.2 0-0.3 0.1-0.5 -0.1 0-0.2-0.1-0.2-0.2 -0.3 0.1-0.7-0.1-0.6-0.5 0-0.5 0-0.9-0.1-1.4 -1.1 0.8-1.9 2-2.4 3.3 -0.1 0.3-0.4 0.4-0.6 0.3 -0.1 0.1-0.2 0.1-0.3 0.2 -0.1 0.1-0.1 0.2-0.2 0.3 -0.1 0.2-0.2 0.4-0.3 0.5 0 0 0 0-0.1 0 -0.2 0.4-0.3 0.7-0.4 1.1 0 0.2-0.2 0.3-0.3 0.3 -0.2 0.4-0.3 0.8-0.5 1.2 -0.3 0.6-1.2 0.1-0.9-0.5 0.3-0.6 0.5-1.2 0.8-1.8 0.1-0.2 0.2-0.3 0.3-0.3 0.2-0.5 0.4-0.9 0.7-1.3 0-0.1 0.1-0.1 0.2-0.1 0.2-0.4 0.5-0.8 0.7-1.1 0.1-0.2 0.3-0.2 0.5-0.2 0.6-1.2 1.5-2.2 2.7-2.9 0 0 0.1-0.1 0.1-0.1 0 0 0 0 0 0 0 0 0.1 0 0.1-0.1 0 0 0 0 0 0 0 0 0 0 0.1 0 0 0 0.1-0.1 0.1-0.2 0.1-0.1 0.1-0.3 0.2-0.4 0.2-0.4 0.3-0.5 0.7-0.7 0.8-0.4 1.3-1.2 1.9-1.8 0.4-0.5 1.2 0.2 0.7 0.7 -0.6 0.7-1.1 1.5-1.9 1.9 -0.1 0.1-0.3 0.1-0.4 0.2 -0.1 0.1-0.1 0.3-0.2 0.4 0 0 0 0.1-0.1 0.1 0.2 0.2 0.3 0.5 0.4 0.9 0 0 0.1 0 0.1-0.1 0.6-0.5 1-1.1 1.1-2 0.1-0.7 1.1-0.4 1 0.3 0 0 0 0.1 0 0.1 0.3-0.2 0.5-0.5 0.8-0.8 0-0.1 0.1-0.1 0.2-0.1 0-0.4-0.1-0.8-0.2-1.2 -0.1-0.3 0.1-0.6 0.4-0.6 0.6-0.2 1.1-0.3 1.8-0.4 0.2 0 0.3 0.1 0.4 0.2 0.3-0.4 1.1-0.2 0.9 0.4 -0.2 0.7-1 1.2-1.5 1.6 0 0 0 0-0.1 0 -0.5 1-0.7 1.9 0.1 2.9 0.1 0.1 0.1 0.2 0.1 0.4 0.2 0 0.4-0.1 0.6-0.2 0-0.1 0.1-0.2 0.1-0.2 0.7-0.9 1.5-1.7 2.3-2.6 0.1-0.1 0.4-0.2 0.5-0.2 0.7 0.1 0.9 0.1 1.6-0.3 1.8-0.9 3.1-1.4 5-1.5 0-0.1 0-0.2 0-0.3 0-0.1 0-0.2 0-0.3 -2.1 0.5-4.9-0.6-6.4 1.4 -0.3 0.4-0.8 0-0.8-0.4 0 0 0 0 0 0 0 0 0 0 0 0 0-0.1-0.1-0.1-0.1-0.2 0-0.1-0.1-0.2-0.1-0.3 0 0-0.1 0-0.1 0 -0.2 0.3-0.7 0.4-0.9 0 -0.4-0.7 0.4-1.3 0.8-1.8 0.4-0.4 0.4-0.6 0.3-1.1 -0.1 0-0.1 0.1-0.2 0.1 -0.4 0.1-0.7 0-1 0.3 0 0-0.1 0-0.1 0.1 0.2 0.1 0.3 0.4 0.2 0.7 -0.3 0.6-0.8 1-1.4 0.8 -0.5 0.2-0.9 0.3-1.4 0.4 -0.2 0-0.5-0.2-0.5-0.4 -0.1-0.3 0-0.5 0-0.8 0.1-0.4 0.5-0.4 0.8-0.3 0 0 0 0 0 0 -0.1-0.2-0.2-0.5 0-0.7 0.5-0.6 1.2-1 2-1 0-0.2 0.2-0.4 0.4-0.5 0.3-0.1 0.5-0.3 0.7-0.5 0.3-0.2 0.6-0.2 0.8 0.1 0.1 0 0.3 0.1 0.4 0.2 0 0 0.1-0.1 0.2-0.1 1.2-0.7 2.3-1.6 3.5-2.2 0.8-0.4 1.6 0.5 2.2-0.3 0.2-0.3 0.5-0.3 0.7-0.2 1.2-0.4 2.3-0.9 3.5-1.4 0.3-0.3 0.8-0.4 1.3-0.4 0.6 0 0.7 0.9 0.1 1 0.8 0 1.6-0.1 2.1-0.5 0 0 0 0 0 0 0 0 0.1 0 0.1-0.1 0.6-0.2 0.9 0.6 0.4 0.9 -0.1 0.1-0.3 0.2-0.5 0.3 -0.3 0.2-0.6 0.5-0.8 0.9 0.2 0.1 0.4 0.2 0.6 0.2 0.1 0 0.2 0 0.3 0.1 0.4-0.4 0.8-0.8 1.3-1.1 0.6-0.3 1.1 0.6 0.5 0.9 -1.1 0.6-1.6 1.5-2.8 1.9 -1.1 0.4-0.9 1.2-1.4 2 -0.6 1-1.4 1-2.1 0.4 -0.1 0.1-0.2 0.2-0.3 0.3 0.2 0.5-0.4 1.1-0.8 0.6 0 0-0.1-0.1-0.1-0.1 0 0-0.1 0.1-0.1 0.1 0 0.1 0 0.2 0 0.4 0 0.1 0 0.2 0 0.3 0.1-0.1 0.2-0.1 0.3-0.2 0.2-0.1 0.5-0.3 0.8-0.3 0.6 0 1.5 0.3 1.9 0.6 0.4 0.3 0.3 0.9-0.3 1 -0.6 0-1.3 0.1-1.9 0.3 0.2 0.1 0.4 0.2 0.4 0.5 0 0 0 0.1 0 0.1 0 0.4-0.4 0.6-0.7 0.5 0.7 0.3 1.5 0.3 2.2-0.1 0 0 0 0 0 0 -0.1-0.1-0.1-0.1-0.1-0.2 -0.1 0.1-0.1 0.1-0.2 0.2 -0.3 0-0.5 0.1-0.8 0 -0.6-0.2-0.3-1.2 0.3-1 0.1 0 0.1 0.1 0.2 0 0.3 0 0.5 0.1 0.6 0.3 0.1-0.1 0.2-0.2 0.4-0.2 0.4 0 0.7 0.2 0.9 0.5 0.2 0.2 0.2 0.5 0 0.7 -0.8 0.8-1.9 1.1-2.9 1 0.1 0.1 0.1 0.3 0.2 0.5 0.1 0.3 0 0.6-0.1 0.9 0 0 0 0 0.1 0 0 0 0.1 0 0.1 0 0.7 0 0.7 1 0 1 0 0-0.1 0-0.1 0 -0.3 0-0.5-0.3-0.5-0.5 0 0-0.1 0-0.1 0.1 -0.6 0.3-1.1 0.2-1.5-0.1 -0.1 0.3-0.2 0.5-0.3 0.8 -0.2 0.4-0.7 0.3-0.9 0 -0.4 0-0.8 0-1.2 0 0 0.2-0.1 0.4-0.1 0.6 0.1 0.1 0.3 0.2 0.4 0.2 0.6 0.2 1.3 0.3 1.8 0.8C108.8 116.4 108.1 117.1 107.6 116.7zM150.2 182.4c0 0.2 0 0.3 0 0.5 0 0 0 0 0 0 0 0 0 0 0 0 0 0.1 0 0.2 0 0.3 0 0.7-0.1 1.3-0.2 2 -0.1 0.6-1 0.4-1-0.1 0 0-0.1-0.1-0.1-0.2 -0.1-0.1-0.2-0.2-0.2-0.4 0-0.2 0-0.4 0-0.5 -0.1-0.2-0.1-0.4-0.1-0.6 -0.3 0.3-0.9 0.1-0.9-0.4 0-0.6 0-1.2 0.1-1.8 0.1-0.3 0.3-0.4 0.6-0.4 0.3-0.4 0.6-0.7 1-1 0.2-0.5 1-0.4 1 0.2 0 0.5-0.5 1.2-0.7 1.6 0 0.1-0.1 0.1-0.1 0.2C149.8 181.8 150.2 181.9 150.2 182.4zM150.8 174.5c-0.3 0.3-0.8 0.1-0.9-0.2 -0.3-0.9-0.4-1.9 0.1-2.8 0.5-1 0.6-2.1 0.5-3.1 -0.1-0.5 0.6-0.6 0.9-0.3 0.4-0.4 0.9-0.7 1.7-0.7 0.4-0.7 0.9-1.3 1.3-2 0.2-0.4 1-0.3 1 0.3C155.1 168.9 153 172.1 150.8 174.5zM158.4 172.5c-0.5 0.4-1.1-0.5-0.5-0.9 0.5-0.3 0.8-0.9 1.2-1.3 0.2-0.2 0.6-0.2 0.7 0 0.2 0.2 0.2 0.5 0 0.7C159.3 171.5 158.9 172.1 158.4 172.5z"/>
    <path fill="#0F375B" d="M148.7 183.1C148.7 183.1 148.7 183.1 148.7 183.1c0.1-0.1 0.2-0.1 0.4-0.1 0 0 0 0 0 0 0-0.2 0-0.3 0.1-0.5 0 0.1-0.1 0.1-0.1 0.2C149 182.7 148.7 183.1 148.7 183.1z"/>
    <polygon fill="#0F375B" points="172.6 159.2 172.6 159.2 172.6 159.2 "/>
    <polygon fill="#0F375B" points="94 160.8 94 160.8 94 160.8 "/>
    <path fill="#0F375B" d="M144.9 137.6C144.9 137.6 144.9 137.6 144.9 137.6c0-0.1-0.1-0.1-0.1-0.1C144.9 137.5 144.9 137.6 144.9 137.6z"/>
    <path fill="#0F375B" d="M133.3 134.5C133.3 134.5 133.3 134.5 133.3 134.5 133.3 134.5 133.3 134.6 133.3 134.5 133.3 134.6 133.3 134.5 133.3 134.5z"/>
    <path fill="#0F375B" d="M144.5 137.2c0.1 0.1 0.2 0.2 0.3 0.3C144.7 137.4 144.6 137.3 144.5 137.2 144.5 137.2 144.5 137.2 144.5 137.2z"/>
    <path fill="#0F375B" d="M115.1 126.9C115.1 126.9 115.1 126.9 115.1 126.9 115.1 126.9 115.1 126.9 115.1 126.9 115.1 126.9 115.1 126.9 115.1 126.9z"/>
    <path fill="#0F375B" d="M131.3 125C131.3 125 131.3 125.1 131.3 125 131.3 125.1 131.3 125.1 131.3 125 131.3 125.1 131.3 125 131.3 125z"/>
    <path fill="#0F375B" d="M169.7 174.2c-0.1 0.2-0.1 0.3-0.2 0.5 0.3-0.4 0.5-0.7 0.8-1.1 0 0-0.1 0.1-0.1 0.1 -0.1 0.1-0.1 0.2-0.2 0.3C169.9 174.1 169.8 174.2 169.7 174.2z"/>
    <path fill="#0F375B" d="M163.9 175.9C163.9 175.9 163.9 175.9 163.9 175.9c-0.1 0.1-0.1 0.2-0.2 0.2C163.8 176 163.8 175.9 163.9 175.9z"/>
    <path fill="#0F375B" d="M170.7 172.9C170.7 172.9 170.7 172.9 170.7 172.9c-0.1 0.1-0.2 0.2-0.2 0.3C170.6 173.1 170.7 173 170.7 172.9z"/>
    <path fill="#0F375B" d="M171 168.5C171 168.5 171 168.5 171 168.5c0 0 0.1-0.1 0.2-0.1 0 0-0.1 0-0.1-0.1C171.1 168.4 171 168.4 171 168.5z"/>
    <path fill="#0F375B" d="M155.4 107c0.2 0 0.4 0 0.6 0.1 0 0 0 0-0.1-0.1 -0.3-0.3-0.6-0.2-1-0.2 0.1 0.1 0.1 0.2 0.2 0.3C155.1 107.1 155.2 107 155.4 107z"/>
    <path fill="#0F375B" d="M132.6 108.8C132.6 108.8 132.6 108.7 132.6 108.8c-0.1 0-0.1 0-0.2 0.1C132.4 108.8 132.5 108.8 132.6 108.8z"/>
    <path fill="#0F375B" d="M141.5 108.8C141.5 108.8 141.6 108.8 141.5 108.8 141.6 108.8 141.6 108.8 141.5 108.8 141.6 108.8 141.6 108.8 141.5 108.8z"/>
    <path fill="#0F375B" d="M125.7 113.1C125.7 113.1 125.7 113.1 125.7 113.1 125.7 113.1 125.7 113.1 125.7 113.1 125.7 113.1 125.7 113.1 125.7 113.1z"/>
    <path fill="#0F375B" d="M138.5 108.2c-0.1 0-0.1-0.1-0.1-0.1 0 0 0 0 0 0 0 0 0 0.1 0 0.2 0 0 0 0 0 0C138.4 108.2 138.4 108.2 138.5 108.2z"/>
    <path fill="#0F375B" d="M131.3 114.7C131.3 114.7 131.2 114.7 131.3 114.7 131.2 114.7 131.2 114.7 131.3 114.7 131.2 114.7 131.3 114.7 131.3 114.7z"/>
    <path fill="#0F375B" d="M138.3 115.6C138.3 115.5 138.4 115.5 138.3 115.6c0-0.1-0.1-0.1-0.1-0.1 0 0 0 0 0 0C138.3 115.5 138.3 115.5 138.3 115.6z"/>
    <path fill="#0F375B" d="M137.6 117.5C137.6 117.5 137.5 117.5 137.6 117.5 137.5 117.5 137.5 117.5 137.6 117.5 137.6 117.5 137.6 117.5 137.6 117.5z"/>
    <path fill="#0F375B" d="M150.6 107.3C150.6 107.3 150.6 107.3 150.6 107.3 150.7 107.3 150.7 107.3 150.6 107.3z"/>
    <path opacity="0.2" fill="#062135" d="M106.7 99.2c-17.3 8.1-29.3 25.6-29.3 46 0 28 22.7 50.8 50.8 50.8 7.7 0 14.9-1.7 21.4-4.8L106.7 99.2z"/>
    <rect x="453.3" y="68.3" fill="#0F375B" width="121" height="52.6"/>
    <rect x="467" y="87.8" fill="#FFFFFF" width="93.7" height="33.1"/>
    <rect x="468.3" y="88.8" fill="#175B8E" width="91" height="32.1"/>
    <rect x="476.2" y="96.5" fill="#06273F" width="75.3" height="24.4"/>
    <rect x="475" y="49" fill="#175B8E" width="77.7" height="19.3"/>
    <rect x="465.8" y="68.3" fill="#06273F" width="96" height="3"/>
    <polygon fill="#F6F5F5" points="530 32.1 485.1 32.1 485.1 68.3 542.6 68.3 542.6 44.7 "/>
    <polygon fill="#D8D4D5" points="530 32.1 529.8 32.1 529.8 44.8 542.6 44.8 542.6 44.7 "/>
    <rect x="501.4" y="36.7" fill="#E7E1E2" width="24.8" height="1.4"/>
    <rect x="501.4" y="40.8" fill="#E7E1E2" width="24.8" height="1.4"/>
    <rect x="501.4" y="44.9" fill="#E7E1E2" width="24.8" height="1.4"/>
    <rect x="501.4" y="49" fill="#E7E1E2" width="24.8" height="1.4"/>
    <rect x="492.7" y="53.1" fill="#E7E1E2" width="42.2" height="1.4"/>
    <rect x="492.7" y="57.2" fill="#E7E1E2" width="42.2" height="1.4"/>
    <rect x="492.7" y="61.2" fill="#E7E1E2" width="42.2" height="1.4"/>
    <rect x="492.7" y="65.3" fill="#E7E1E2" width="42.2" height="1.4"/>
    <rect x="561.8" y="73" fill="#175B8E" width="7.7" height="2.2"/>
    <rect x="551.5" y="73" fill="#175B8E" width="7.7" height="2.2"/>
    <circle fill="#FF6501" cx="457.8" cy="74.1" r="1.2"/>
    <circle fill="#00FF01" cx="461.7" cy="74.1" r="1.2"/>
    <rect x="659.5" y="37.1" fill="#175B8E" width="15.5" height="83.8"/>
    <rect x="662" y="46" fill="#D3F4EF" width="10.5" height="46.5"/>
    <rect x="663.4" y="87.4" fill="#E03D1A" width="7.7" height="2.6"/>
    <rect x="663.4" y="48.5" fill="#E03D1A" width="7.7" height="2.6"/>
    <rect x="649.9" y="46" fill="#F9A21D" width="9.6" height="74.9"/>
    <rect x="649.9" y="46" fill="#632302" width="9.6" height="12.7"/>
    <rect x="649.9" y="108.2" fill="#632302" width="9.6" height="12.7"/>
    <rect x="649.9" y="103.4" fill="#632302" width="9.6" height="2.4"/>
    <rect x="649.9" y="99.3" fill="#632302" width="9.6" height="2.4"/>
    <rect x="649.9" y="65.7" fill="#632302" width="9.6" height="2.4"/>
    <rect x="649.9" y="61.7" fill="#632302" width="9.6" height="2.4"/>
    <rect x="644.3" y="41.9" fill="#E21B25" width="5.5" height="79"/>
    <rect x="644.3" y="52.4" fill="#C40001" width="5.5" height="58.1"/>
    <rect x="644.3" y="49.1" fill="#C40001" width="5.5" height="1.3"/>
    <rect x="644.3" y="112.1" fill="#C40001" width="5.5" height="1.3"/>
    <rect x="627" y="36.1" transform="matrix(-0.9848 -0.1736 0.1736 -0.9848 1241.5608 265.344)" fill="#D3F4EF" width="10.9" height="84.5"/>
    <rect x="621.2" y="109.7" transform="matrix(-0.9848 -0.1736 0.1736 -0.9848 1224.422 329.3073)" fill="#F47106" width="10.9" height="2.9"/>
    <rect x="622.3" y="103.2" transform="matrix(-0.9848 -0.1737 0.1737 -0.9848 1227.6886 317.1134)" fill="#F47106" width="10.9" height="3.3"/>
    <rect x="633" y="42.7" transform="matrix(-0.9848 -0.1737 0.1737 -0.9848 1259.4004 198.7664)" fill="#F47106" width="10.9" height="3.2"/>
    <rect x="632" y="48.5" transform="matrix(-0.9848 -0.1736 0.1736 -0.9848 1256.5016 209.5874)" fill="#F47106" width="10.9" height="2.7"/>
    <rect x="631.1" y="53.6" transform="matrix(-0.9848 -0.1736 0.1736 -0.9848 1253.839 219.5269)" fill="#F47106" width="10.9" height="2.6"/>
    <rect x="612.9" y="36.3" transform="matrix(-0.9744 -0.225 0.225 -0.9744 1197.8026 294.1732)" fill="#E21B25" width="5.4" height="85.1"/>
    <rect x="605.7" y="99.8" transform="matrix(-0.9744 -0.225 0.225 -0.9744 1176.4756 354.3944)" fill="#FF6501" width="5.4" height="20.8"/>
    <rect x="620.3" y="37.1" transform="matrix(-0.9744 -0.2249 0.2249 -0.9744 1219.5138 232.8583)" fill="#FF6501" width="5.4" height="19.7"/>
    <rect x="618.9" y="49.8" transform="matrix(-0.9848 -0.1737 0.1737 -0.9848 1220.2767 277.4688)" fill="#06273F" width="6.7" height="71.1"/>
    <rect x="618.9" y="69.1" transform="matrix(-0.9848 -0.1737 0.1737 -0.9848 1220.2767 277.4688)" fill="#175B8E" width="6.7" height="32.6"/>
    <rect x="613.8" y="113.4" transform="matrix(-0.9848 -0.1737 0.1737 -0.9848 1204.913 334.8065)" fill="#175B8E" width="6.7" height="2.5"/>
    <rect x="624.4" y="53.5" transform="matrix(-0.9848 -0.1737 0.1737 -0.9848 1236.4901 216.9659)" fill="#175B8E" width="6.7" height="1.8"/>
    <circle fill="#D3F4EF" cx="667.2" cy="104.9" r="4.4"/>
    <rect x="57.5" y="433" fill="#FFFFFF" width="170.6" height="33.5"/>
    <rect x="58.2" y="433" fill="#E7E1E2" width="169.2" height="32.8"/>
    <rect x="57.5" y="433" fill="#FFFFFF" width="170.6" height="0.8"/>
    <rect x="89.5" y="433" fill="#FFFFFF" width="106.5" height="4.9"/>
    <rect x="90.2" y="433" fill="#06273F" width="105.2" height="4.3"/>
    <rect x="57.5" y="466.5" fill="#FFFFFF" width="170.6" height="33.5"/>
    <rect x="58.2" y="466.5" fill="#E7E1E2" width="169.2" height="32.8"/>
    <rect x="57.5" y="466.5" fill="#FFFFFF" width="170.6" height="0.8"/>
    <rect x="89.5" y="466.5" fill="#FFFFFF" width="106.5" height="4.9"/>
    <rect x="90.2" y="466.5" fill="#06273F" width="105.2" height="4.3"/>
    <rect x="521.9" y="433" fill="#FFFFFF" width="170.6" height="33.5"/>
    <rect x="522.6" y="433" fill="#E7E1E2" width="169.2" height="32.8"/>
    <rect x="521.9" y="433" fill="#FFFFFF" width="170.6" height="0.8"/>
    <rect x="554" y="433" fill="#FFFFFF" width="106.5" height="4.9"/>
    <rect x="554.6" y="433" fill="#06273F" width="105.2" height="4.3"/>
    <rect x="521.9" y="466.5" fill="#FFFFFF" width="170.6" height="33.5"/>
    <rect x="522.6" y="466.5" fill="#E7E1E2" width="169.2" height="32.8"/>
    <rect x="521.9" y="466.5" fill="#FFFFFF" width="170.6" height="0.8"/>
    <rect x="554" y="466.5" fill="#FFFFFF" width="106.5" height="4.9"/>
    <rect x="554.6" y="466.5" fill="#06273F" width="105.2" height="4.3"/>
    <rect x="612.9" y="36.3" transform="matrix(-0.9744 -0.225 0.225 -0.9744 1197.8026 294.1732)" fill="#E21B25" width="5.4" height="85.1"/>
    <polygon fill="#4F1C00" points="38.3 409 38.3 433 38.3 500 57.5 500 57.5 433 692.5 433 692.5 500 711.7 500 711.7 433 711.7 409 "/>
    <rect x="275.3" y="277.7" fill="#ABD5EF" width="145.5" height="99.6"/>
    <rect x="275.3" y="277.7" fill="#BDE9FF" width="145.5" height="2.9"/>
    <rect x="315.5" y="290" fill="#B6DEF2" width="96.2" height="71.2"/>
    <rect x="315.5" y="290.4" fill="#BDE9FF" width="96.2" height="2.6"/>
    <rect x="288.2" y="316.6" fill="#CAEBF9" width="72.1" height="53.3"/>
    <rect x="288.3" y="316.6" fill="#97D5FC" width="72.1" height="2.4"/>
    <path fill="#BDE9FF" d="M411.7 293h-96.2H411.7z"/>
    <rect x="250.3" y="289" fill="#ABD5EF" width="8" height="8.8"/>
    <rect x="260.3" y="289" fill="#ABD5EF" width="8" height="8.8"/>
    <rect x="250.3" y="299.7" fill="#ABD5EF" width="8" height="8.8"/>
    <rect x="260.3" y="299.7" fill="#ABD5EF" width="8" height="8.8"/>
    <rect x="250.3" y="310.5" fill="#ABD5EF" width="8" height="8.8"/>
    <rect x="260.3" y="310.5" fill="#ABD5EF" width="8" height="8.8"/>
    <rect x="250.3" y="321.2" fill="#ABD5EF" width="8" height="8.8"/>
    <rect x="260.3" y="321.2" fill="#ABD5EF" width="8" height="8.8"/>
    <rect x="250.3" y="332" fill="#ABD5EF" width="8" height="8.8"/>
    <rect x="260.3" y="332" fill="#ABD5EF" width="8" height="8.8"/>
    <rect x="250.3" y="342.7" fill="#ABD5EF" width="8" height="8.8"/>
    <rect x="260.3" y="342.7" fill="#ABD5EF" width="8" height="8.8"/>
    <rect x="250.3" y="353.5" fill="#ABD5EF" width="8" height="8.8"/>
    <rect x="260.3" y="353.5" fill="#ABD5EF" width="8" height="8.8"/>
    <rect x="250.6" y="266.9" fill="#ABD5EF" width="19.3" height="4.9"/>
    <rect x="273.2" y="266.9" fill="#ABD5EF" width="19.3" height="4.9"/>
    <rect x="295.8" y="266.9" fill="#ABD5EF" width="19.3" height="4.9"/>
    <rect x="318.4" y="266.9" fill="#ABD5EF" width="19.3" height="4.9"/>
    <rect x="341" y="266.9" fill="#ABD5EF" width="19.3" height="4.9"/>
    <rect x="363.6" y="266.9" fill="#ABD5EF" width="19.3" height="4.9"/>
    <rect x="386.2" y="266.9" fill="#ABD5EF" width="19.3" height="4.9"/>
    <rect x="428.3" y="271.8" fill="#ABD5EF" width="34" height="3.7"/>
    <rect x="428.3" y="277.9" fill="#BDE9FF" width="34" height="22.5"/>
    <rect x="428.3" y="339" fill="#ABD5EF" width="34" height="3.7"/>
    <rect x="428.3" y="345.1" fill="#BDE9FF" width="34" height="14.4"/>
    <rect x="428.3" y="302.8" fill="#ABD5EF" width="34" height="3.7"/>
    <rect x="428.3" y="308.9" fill="#BDE9FF" width="34" height="28.2"/>
    <path fill="#97D5FC" d="M325.4 364l-20-20 20-20 20 20L325.4 364zM306.1 344l19.3 19.3 19.3-19.3 -19.3-19.3L306.1 344z"/>
    <rect x="324.2" y="323.1" fill="#CAEBF9" width="2.4" height="2.4"/>
    <path fill="#FFFFFF" d="M326.9 325.8H324v-2.9h2.9V325.8zM324.5 325.2h1.9v-1.9h-1.9V325.2z"/>
    <rect x="344.3" y="342.8" fill="#CAEBF9" width="2.4" height="2.4"/>
    <path fill="#FFFFFF" d="M346.9 345.4H344v-2.9h2.9V345.4zM344.5 344.9h1.9V343h-1.9V344.9z"/>
    <rect x="304.2" y="342.8" fill="#CAEBF9" width="2.4" height="2.4"/>
    <path fill="#FFFFFF" d="M306.8 345.4h-2.9v-2.9h2.9V345.4zM304.4 344.9h1.9V343h-1.9V344.9z"/>
    <rect x="324.2" y="362.8" fill="#CAEBF9" width="2.4" height="2.4"/>
    <path fill="#FFFFFF" d="M326.9 365.5H324v-2.9h2.9V365.5zM324.5 365h1.9v-1.9h-1.9V365z"/>
    <polygon opacity="0.3" fill="#FFFFFF" points="249 266.5 249 387 461 266.5 "/>
  </g>
</svg>
